<?xml version="1.0" encoding="UTF-8" standalone="no"?>
<!-- Created with Inkscape (http://www.inkscape.org/) -->

<svg
   version="1.1"
   id="svg1"
   width="505.01599"
   height="455.04666"
   viewBox="0 0 505.01599 455.04666"
   xmlns="http://www.w3.org/2000/svg"
   xmlns:svg="http://www.w3.org/2000/svg">
  <defs
     id="defs1">
    <linearGradient
       x1="0"
       y1="0"
       x2="0"
       y2="100.00128"
       gradientUnits="userSpaceOnUse"
       id="linearGradient5">
      <stop
         style="stop-opacity:1;stop-color:#f9f4e8"
         offset="0"
         id="stop1" />
      <stop
         style="stop-opacity:1;stop-color:#f9f4e8"
         offset="0.25"
         id="stop2" />
      <stop
         style="stop-opacity:1;stop-color:#e5ce95"
         offset="0.5"
         id="stop3" />
      <stop
         style="stop-opacity:1;stop-color:#d1a843"
         offset="0.75"
         id="stop4" />
      <stop
         style="stop-opacity:1;stop-color:#d1a843"
         offset="1"
         id="stop5" />
    </linearGradient>
    <clipPath
       clipPathUnits="userSpaceOnUse"
       id="clipPath6">
      <path
         d="M 0,0 V 85.04042 L 85.04042,42.52022 V -42.5202 Z"
         transform="matrix(2.6692533,0,0,-2.6692533,38.003295,341.01883)"
         id="path6" />
    </clipPath>
    <linearGradient
       x1="0"
       y1="0"
       x2="0"
       y2="100.00128"
       gradientUnits="userSpaceOnUse"
       id="linearGradient16">
      <stop
         style="stop-opacity:1;stop-color:#46556d"
         offset="0"
         id="stop12" />
      <stop
         style="stop-opacity:1;stop-color:#46556d"
         offset="0.25"
         id="stop13" />
      <stop
         style="stop-opacity:1;stop-color:#97a0ad"
         offset="0.5"
         id="stop14" />
      <stop
         style="stop-opacity:1;stop-color:#e8eaed"
         offset="0.75"
         id="stop15" />
      <stop
         style="stop-opacity:1;stop-color:#e8eaed"
         offset="1"
         id="stop16" />
    </linearGradient>
    <clipPath
       clipPathUnits="userSpaceOnUse"
       id="clipPath17">
      <path
         d="M 85.04042,-42.52022 V 42.5202 l 85.04044,42.52022 V 0 Z"
         transform="matrix(2.6692533,0,0,-2.6692533,38.003295,341.01883)"
         id="path17" />
    </clipPath>
    <linearGradient
       x1="0"
       y1="0"
       x2="0"
       y2="100.00128"
       gradientUnits="userSpaceOnUse"
       id="linearGradient26">
      <stop
         style="stop-opacity:1;stop-color:#e6e6e6"
         offset="0"
         id="stop22" />
      <stop
         style="stop-opacity:1;stop-color:#e6e6e6"
         offset="0.25"
         id="stop23" />
      <stop
         style="stop-opacity:1;stop-color:#808080"
         offset="0.5"
         id="stop24" />
      <stop
         style="stop-opacity:1;stop-color:#191919"
         offset="0.75"
         id="stop25" />
      <stop
         style="stop-opacity:1;stop-color:#191919"
         offset="1"
         id="stop26" />
    </linearGradient>
    <clipPath
       clipPathUnits="userSpaceOnUse"
       id="clipPath27">
      <path
         d="M 85.04042,127.56062 170.08086,85.04042 85.04042,42.5202 0,85.0404 Z"
         transform="matrix(2.6692533,0,0,-2.6692533,38.003295,341.01883)"
         id="path27" />
    </clipPath>
  </defs>
  <g
     id="g1">
    <g
       id="g5"
       clip-path="url(#clipPath6)">
      <path
         d="M 0,0 H 100 V 100 H 0 Z"
         transform="matrix(0,-6.8106266,-4.5403999,0,378.52048,624.80157)"
         style="fill:url(#linearGradient5);stroke:none"
         id="path5" />
    </g>
    <path
       id="path7"
       d="m 8.5640509,-8.7078061 c 0,-0.5326864 0.040976,-0.676102 1.0770803,-0.6790289 l 0.2868311,0.00293 v -0.4156125 c -0.3453681,0.026342 -1.5219612,0.029268 -1.9375737,0.026342 -0.4273198,0.00293 -1.6097666,0.00293 -1.949281,-0.026342 V -9.383905 H 6.322085 c 1.0419581,0 1.082934,0.1375619 1.082934,0.6702483 v 3.4009979 l -4.2907599,0.00293 V -8.710733 c 0,-0.5326864 0.040976,-0.6702483 1.0770803,-0.6731751 l 0.2868311,-0.00293 v -0.4156124 c -0.3453681,0.032195 -1.5278149,0.032195 -1.9375737,0.032195 -0.4331736,0 -1.60976663,0.00293 -1.95513475,-0.029268 v 0.4156125 l 0.28683115,0.00293 c 1.0361044,-0.00293 1.0829339,0.1375619 1.0829339,0.6702483 v 7.6156597 c 0,0.53854014 -0.04683,0.67317516 -1.0829339,0.67610201 l -0.28683115,-0.002927 V -4.3195725e-4 C 0.93083017,-0.0209199 2.1074232,-0.02384674 2.5230357,-0.0209199 2.9503556,-0.0238467 4.1328024,-0.0238467 4.4781705,-0.00335881 v -0.42146617 l -0.2868311,0.002927 C 3.155235,-0.41897129 3.1142591,-0.55653316 3.1142591,-1.0950733 v -3.7931956 l 4.2907599,-0.00293 v 3.7931956 c 0,0.53854009 -0.040976,0.67610196 -1.082934,0.67610196 H 6.0411076 V -4.3195725e-4 C 6.380622,-0.02384674 7.5630688,-0.02384674 7.9728276,-0.02384674 c 0.4331735,0 1.6097666,-0.0029268 1.9551347,0.0234147828 V -0.42189814 l -0.2868311,-0.002927 C 8.6050268,-0.42189814 8.5640509,-0.55360632 8.5640509,-1.0921464 Z m 0,0"
       style="fill:#182b49;fill-opacity:1;fill-rule:nonzero;stroke:none"
       aria-label="H"
       transform="matrix(2.6692533,1.3346267,0,2.6692533,61.781003,176.83306)" />
    <path
       id="path8"
       d="m 12.813618,-8.3914382 c 0.228294,-0.6936631 0.643906,-0.9775674 1.358057,-0.9892748 v -0.4156125 c -0.614638,0.026342 -0.643906,0.029269 -1.276106,0.023415 -0.374636,0.00585 -1.147324,0.00585 -1.492692,-0.026342 V -9.38364 c 0.872201,0.020488 1.135617,0.4741494 1.135617,0.7668343 0,0.070244 -0.04098,0.1785377 -0.07024,0.2809774 l -2.17758,6.7961423 -2.329771,-7.2117546 c -0.011707,-0.046829 -0.04683,-0.1580498 -0.04683,-0.1990257 0,-0.4331735 0.7668343,-0.4361004 1.1063487,-0.4302467 v -0.4156125 c -0.3395144,0.023415 -1.4048872,0.029269 -1.8204997,0.026342 -0.4156125,0.00293 -1.2878133,0 -1.6624499,-0.029268 v 0.4156125 c 0.7609805,0 0.9600062,0.04683 1.1180561,0.2956117 0.1053665,0.193172 0.2048794,0.6409798 0.386344,1.1531783 L 4.9930786,-1.5367591 2.6984294,-8.684123 c -0.076098,-0.1960989 -0.076098,-0.2253674 -0.076098,-0.2663433 0,-0.4331735 0.7317121,-0.4302467 1.1063487,-0.4361004 v -0.4156125 c -0.3336607,0.032195 -1.4224483,0.032195 -1.8204997,0.032195 -0.4156125,-0.00293 -1.28781336,0 -1.66244996,-0.029268 v 0.4156125 c 0.77268796,0 1.04781176,-0.00293 1.21756896,0.5502475 l 2.839043,8.85957027 c 0.076098,0.21365993 0.134635,0.2721969 0.2575627,0.27512375 0.1170739,-0.005854 0.1873183,-0.0409759 0.2634163,-0.25463581 l 2.376601,-7.44590251 2.394162,7.44882935 c 0.076098,0.20780624 0.1463424,0.24878212 0.2575627,0.25170897 0.134635,-0.002927 0.1931719,-0.0614638 0.2634159,-0.2780506 z m 0,0"
       style="fill:#182b49;fill-opacity:1;fill-rule:nonzero;stroke:none"
       aria-label="W"
       transform="matrix(2.6692533,1.3346267,0,2.6692533,132.23861,212.0592)" />
    <path
       id="path9"
       d="M 2.9849257,-5.9821512 C 2.2532136,-6.1723963 1.609307,-6.8865474 1.609307,-7.8055778 c 0,-1.0068358 0.7961027,-1.9024515 1.9200126,-1.9083052 2.3473324,0.00293 2.6692857,2.3239177 2.7512375,2.9444096 0.035122,0.1697572 0.035122,0.2224405 0.1756109,0.2224405 0.1580498,0.00293 0.1580498,-0.067318 0.1580498,-0.3248802 v -2.89758 c 0,-0.2575629 0,-0.3278069 -0.1404887,-0.3278069 -0.04683,0 -0.099513,-0.0029 -0.2048794,0.1785376 L 5.7947003,-9.037781 c -0.6907363,-0.8897619 -1.6331815,-1.056592 -2.2653807,-1.062446 -1.5922056,0 -2.75709129,1.2790328 -2.75709129,2.742457 0,0.6907363 0.24585529,1.3170818 0.77854169,1.8878173 0.5034179,0.5561012 1.0009822,0.6936631 2.0195254,0.9570794 0.503418,0.1112203 1.2936671,0.3073191 1.4926927,0.3951246 0.6731752,0.3307339 1.1180562,1.1092755 1.1180562,1.9053783 0,1.082934 -0.7551269,2.09269667 -1.9492811,2.09269667 -0.6439067,0 -1.5336686,-0.15804981 -2.2361122,-0.77268799 C 1.164426,-1.6416349 1.105889,-2.6718856 1.0883279,-3.1431082 1.0766205,-3.2601821 0.96540031,-3.263109 0.93027813,-3.2572553 c -0.15804982,-0.00293 -0.15804982,0.073171 -0.15804982,0.3307339 v 2.90343367 c 0,0.25170897 0,0.32195333 0.14634242,0.31902649 0.0878055,0.002927 0.0995129,-0.0204879 0.19902567,-0.193172 0.058537,-0.11122024 0.3570755,-0.64683351 0.4741495,-0.8634203 0.5151253,0.579516 1.4165946,1.05951914 2.6517247,1.06244599 1.6097666,-0.002927 2.7746523,-1.36391135 2.7746523,-2.94440955 0,-0.8722008 -0.3336607,-1.5190343 -0.7200047,-1.9931838 -0.5326864,-0.6468335 -1.1765931,-0.8048833 -1.738548,-0.945372 z m 0,0"
       style="fill:#182b49;fill-opacity:1;fill-rule:nonzero;stroke:none"
       aria-label="S"
       transform="matrix(2.6692533,1.3346267,0,2.6692533,65.419196,254.31615)" />
    <path
       id="path10"
       d="m 3.1253507,-4.5604345 h 2.4234305 c 1.680011,0.00293 3.2136796,-1.1326904 3.2136796,-2.5844072 0,-1.3873262 -1.3931799,-2.6517247 -3.3307536,-2.6546516 l -4.82929991,-0.00293 v 0.4156124 l 0.28683115,0.00293 c 1.03025066,0 1.07122656,0.1434156 1.07122656,0.676102 v 7.6156597 c 0,0.53854009 -0.040976,0.67024827 -1.07122656,0.67024827 l -0.28683115,-0.002927 V -0.0033315 C 0.94777541,-0.02381944 2.1243685,-0.02089259 2.539981,-0.02381944 c 0.4273198,0.0029269 1.6039129,0 1.949281,0.02634164 v -0.42146618 l -0.2868311,-0.002927 c -1.0302507,0 -1.0770802,-0.13463503 -1.0770802,-0.67317522 z m -0.029268,-0.348295 v -3.8985622 c 0,-0.4682957 0.029268,-0.5765891 0.6614677,-0.5765891 h 1.3463503 c 2.3239177,0.00293 2.3239177,1.6244009 2.3239177,2.2390391 0,0.6029307 0,2.2361122 -2.3356251,2.2331853 z m 0,0"
       style="fill:#182b49;fill-opacity:1;fill-rule:nonzero;stroke:none"
       aria-label="P"
       transform="matrix(2.6692533,1.3346267,0,2.6692533,138.74358,290.97834)" />
    <path
       id="path11"
       d="m 8.5641056,-8.7067788 c 0,-0.5326864 0.040976,-0.676102 1.0770802,-0.6790289 l 0.2868311,0.00293 v -0.4156125 c -0.3453681,0.026342 -1.5219612,0.029269 -1.9375736,0.026342 -0.4273199,0.00293 -1.6097667,0.00293 -1.9492811,-0.026342 v 0.4156125 h 0.2809774 c 1.0419581,0 1.082934,0.1375619 1.082934,0.6702483 v 3.4009979 l -4.2907599,0.00293 v -3.4009979 c 0,-0.5326864 0.040976,-0.6702483 1.0770803,-0.6731751 l 0.2868311,-0.00293 v -0.4156124 c -0.3453681,0.032195 -1.5278149,0.032195 -1.9375737,0.032195 -0.4331735,0 -1.60976662,0.00293 -1.95513474,-0.029269 v 0.4156125 l 0.28683115,0.00293 c 1.03610439,-0.00293 1.08293389,0.1375619 1.08293389,0.6702483 v 7.6156597 c 0,0.53854014 -0.04683,0.67317517 -1.08293389,0.67610202 l -0.28683115,-0.002927 V 5.9534876e-4 C 0.93088478,-0.01989259 2.1074779,-0.02281944 2.5230903,-0.01989259 2.9504102,-0.02281944 4.132857,-0.02281944 4.4782251,-0.0023315 v -0.42146618 l -0.2868311,0.002927 C 3.1552896,-0.41794398 3.1143137,-0.55550586 3.1143137,-1.094046 v -3.7931956 l 4.2907599,-0.00293 v 3.7931956 c 0,0.53854009 -0.040976,0.67610197 -1.082934,0.67610197 H 6.0411622 V 5.9534876e-4 C 6.3806766,-0.02281944 7.5631234,-0.02281944 7.9728822,-0.02281944 c 0.4331735,0 1.6097666,-0.0029269 1.9551347,0.0234147888 V -0.42087083 l -0.2868311,-0.002927 C 8.6050814,-0.42087083 8.5641056,-0.55257901 8.5641056,-1.0911191 Z m 0,0"
       style="fill:#182b49;fill-opacity:1;fill-rule:nonzero;stroke:none"
       aria-label="H"
       transform="matrix(2.6692533,1.3346267,0,2.6692533,213.10898,328.15837)" />
    <path
       id="path12"
       d="M 0,0 85.04042,-42.5202 M 0,28.3468 85.04042,-14.17339 M 0,56.69362 85.04042,14.1734 M 0,85.03047 85.04042,42.51025 M 0,0 V 85.04042 M 28.3468,-14.17339 V 70.86702 M 56.69362,-28.3468 v 85.04042 m 28.33685,-99.20885 v 85.04042"
       style="fill:none;stroke:#000000;stroke-width:0.3985;stroke-linecap:butt;stroke-linejoin:miter;stroke-miterlimit:10;stroke-dasharray:none;stroke-opacity:1"
       transform="matrix(2.6692533,0,0,-2.6692533,38.003295,341.01883)" />
    <g
       id="g16"
       clip-path="url(#clipPath17)">
      <path
         d="M 0,0 H 100 V 100 H 0 Z"
         transform="matrix(0,-6.8106266,-4.5403999,0,605.5149,624.80157)"
         style="fill:url(#linearGradient16);stroke:none"
         id="path16" />
    </g>
    <path
       id="path18"
       d="m 8.1782889,-3.2976792 c 0,2.0078181 -1.3580577,3.18441115 -2.7102617,3.1814843 C 4.6075337,-0.11912174 3.114841,-0.6840035 3.114841,-3.2010932 V -8.709422 c 0,-0.5326864 0.040976,-0.676102 1.0770803,-0.6731751 l 0.2868311,0.00293 v -0.4156124 c -0.3453681,0.026342 -1.5278149,0.026342 -1.9375737,0.026342 -0.4331735,0 -1.60976661,-0.00293 -1.95513473,-0.029269 v 0.4156125 l 0.28683115,-0.00293 C 1.9089795,-9.382594 1.955809,-9.2421084 1.955809,-8.709422 v 5.4263771 c 0,2.0780624 1.6565963,3.57953564 3.477096,3.58246248 1.9961107,-0.002927 3.1317279,-1.95220788 3.1317279,-3.38636368 v -5.4205233 c 0,-0.8780546 1.1063487,-0.8751277 1.3639113,-0.8751277 v -0.4156125 c -0.3746366,0.029269 -1.1473246,0.029269 -1.5512296,0.026342 -0.4156125,0.00293 -1.1883005,0.00293 -1.5570834,-0.023415 v 0.4156124 c 1.3580577,-0.00585 1.3580577,0.6673215 1.3580577,1.0595192 z m 0,0"
       style="fill:#c69214;fill-opacity:1;fill-rule:nonzero;stroke:none"
       aria-label="U"
       transform="matrix(2.6692533,-1.3346267,0,2.6692533,288.77164,266.54933)" />
    <path
       id="path19"
       d="m 9.3482641,-9.7730997 c 0,-0.2575623 0,-0.3278073 -0.1404887,-0.3278073 -0.081952,0.0059 -0.099513,0.02634 -0.1873183,0.1697575 L 8.3180135,-8.801386 c -0.6439067,-0.7961028 -1.6156204,-1.293667 -2.6517247,-1.296594 -2.6224562,0 -4.89369065,2.2653809 -4.89369065,5.1863756 0,2.9736781 2.29464915,5.20979027 4.89369065,5.20979027 2.3531861,0 3.6819753,-2.05172077 3.6819753,-3.63221897 0,-0.1580498 0,-0.2400015 -0.1521961,-0.2341478 -0.1463424,-0.00293 -0.1580498,0.067318 -0.1580498,0.1668303 -0.1287813,2.2829418 -1.7912313,3.28392399 -3.1844111,3.28392399 -1.0068359,0 -3.7463661,-0.60293078 -3.7463661,-4.79417779 0,-4.1385637 2.6985543,-4.7795435 3.728805,-4.7795435 1.5102538,0.00585 2.8273356,1.2790328 3.1141667,3.4302664 0.029269,0.1785377 0.029269,0.2195136 0.1990257,0.2165868 0.1990257,0 0.1990257,-0.040976 0.1990257,-0.3278071 z m 0,0"
       style="fill:#c69214;fill-opacity:1;fill-rule:nonzero;stroke:none"
       aria-label="C"
       transform="matrix(2.6692533,-1.3346267,0,2.6692533,364.94946,228.46176)" />
    <path
       id="path20"
       d="M 2.985035,-5.9828036 C 2.2533229,-6.1671951 1.6094162,-6.8813461 1.6094162,-7.8003765 c 0,-1.0068359 0.7961028,-1.9141589 1.9200126,-1.9083052 2.3473324,-0.00293 2.6692858,2.3239177 2.7512375,2.9327022 0.035122,0.1814646 0.035122,0.2341478 0.1756109,0.2341478 0.1580499,-0.00293 0.1580499,-0.073171 0.1580499,-0.3307338 v -2.89758 c 0,-0.2575625 0,-0.3278075 -0.1404888,-0.3278075 -0.046829,0 -0.099513,0.0029 -0.2048794,0.1843919 L 5.7948095,-9.0384334 C 5.1040733,-9.9281953 4.161628,-10.100879 3.5294288,-10.095026 c -1.5922056,0 -2.75709127,1.2731794 -2.75709127,2.7366036 0,0.6907363 0.24585527,1.3170818 0.77854167,1.893671 0.503418,0.5561012 1.0009822,0.6878094 2.0195255,0.9512257 0.5034179,0.1112203 1.293667,0.3131728 1.4926927,0.4009783 0.6731751,0.3248801 1.1180561,1.1034218 1.1180561,1.8995246 0,1.0829339 -0.7551269,2.09855035 -1.9492811,2.09855035 -0.6439067,0 -1.5336686,-0.15804982 -2.2361122,-0.772688 C 1.1645352,-1.6364337 1.1059983,-2.6666843 1.0884372,-3.1437606 1.0767298,-3.2608345 0.96550953,-3.2579077 0.93038735,-3.2637614 c -0.15804982,0.00293 -0.15804982,0.079025 -0.15804982,0.3365876 v 2.90343365 c 0,0.25170897 0,0.32195333 0.14634243,0.32488018 0.0878054,-0.002927 0.0995128,-0.0263416 0.19902574,-0.20487939 0.058537,-0.11122025 0.3570755,-0.64097982 0.4741494,-0.8575666 0.5151253,0.57951599 1.4165947,1.05951914 2.6517247,1.05659229 1.6097667,0.002927 2.7746523,-1.35220403 2.7746523,-2.93270213 0,-0.8722009 -0.3336607,-1.5248881 -0.7200047,-1.9990375 C 5.765541,-5.2774331 5.1216343,-5.4354829 4.5596794,-5.5876791 Z m 0,0"
       style="fill:#c69214;fill-opacity:1;fill-rule:nonzero;stroke:none"
       aria-label="S"
       transform="matrix(2.6692533,-1.3346267,0,2.6692533,368.07515,302.5629)" />
    <path
       id="path21"
       d="m 0.60314683,-9.7957554 v 0.4156124 l 0.28683114,-0.00293 c 1.03025063,0 1.07122653,0.1375619 1.07122653,0.6702483 v 7.6156597 c 0,0.53854009 -0.040976,0.67610197 -1.07122653,0.67610197 l -0.28683114,0.002927 V 0.0033332 H 5.6256188 c 2.394162,-0.002926852 4.3200283,-2.1541605 4.3200283,-4.8058852 0,-2.7687986 -1.9375737,-4.9961303 -4.3200283,-4.9932034 z m 3.15514267,9.37469557 c -0.6321993,0 -0.6614678,-0.096586 -0.6614678,-0.57073545 V -8.8123344 c 0,-0.4682957 0.029269,-0.5707354 0.6614678,-0.5707354 h 1.5102538 c 1.1883004,0.00293 2.1365993,0.5765891 2.721969,1.524888 0.6439067,1.0185433 0.6439067,2.4702601 0.6439067,3.0380687 0,0.8078102 -0.011707,2.1483068 -0.8253713,3.2107528 -0.4800031,0.6087845 -1.3346429,1.18830047 -2.5405044,1.18830047 z m 0,0"
       style="fill:#c69214;fill-opacity:1;fill-rule:nonzero;stroke:none"
       aria-label="D"
       transform="matrix(2.6692533,-1.3346267,0,2.6692533,439.83536,266.6828)" />
    <path
       id="path22"
       d="M 85.04042,-42.52022 170.08086,0 M 85.04042,-14.1734 170.08086,28.3468 M 85.04042,14.17339 170.08086,56.69362 M 85.04042,42.51024 170.08086,85.03047 M 85.04042,-42.52022 V 42.5202 m 28.34682,-70.867 v 85.04042 m 28.3468,-70.86702 V 70.867 m 28.33685,-70.87197 v 85.0404"
       style="fill:none;stroke:#000000;stroke-width:0.3985;stroke-linecap:butt;stroke-linejoin:miter;stroke-miterlimit:10;stroke-dasharray:none;stroke-opacity:1"
       transform="matrix(2.6692533,0,0,-2.6692533,38.003295,341.01883)" />
    <g
       id="g26"
       clip-path="url(#clipPath27)">
      <path
         d="M 0,0 H 100 V 100 H 0 Z"
         transform="matrix(9.0808532,0,0,-4.5403999,-189.04494,341.04446)"
         style="fill:url(#linearGradient26);stroke:none"
         id="path26" />
    </g>
    <path
       id="path28"
       d="M 6.0494484,-4.8729056 C 7.4777504,-5.21242 8.5811723,-6.1109625 8.5840992,-7.220238 8.5811723,-8.6046373 6.9567714,-9.7958647 4.8904164,-9.8017184 l -4.29075984,0.00585 0.002927,0.4126857 0.289758,-0.00293 c 1.03025074,0 1.06829974,0.1434156 1.07122654,0.6731752 l -0.00293,7.6185865 c 0.00585,0.53268642 -0.040976,0.67317515 -1.07122659,0.67317515 l -0.289758,0.002927 V 0.00321733 C 0.93331424,-0.02605115 2.1069805,-0.0231243 2.5255198,-0.02605115 c 0.4156125,0.0058537 1.6068399,0.0029268 1.9346469,0.0263416343 V -0.42117569 l -0.289758,0.002927 c -1.0302507,0 -1.0682997,-0.14341557 -1.0741534,-0.67610201 l 0.00293,-3.6731948 1.6653768,0.00293 c 0.5619548,0 1.0917145,0.155123 1.4751316,0.5619549 0.4858569,0.5443939 0.4887837,0.8400055 0.4858569,1.8322072 0.00585,1.1297635 0.00293,1.50147325 0.6409798,2.12781882 0.2078062,0.21951364 0.810737,0.54146697 1.6097666,0.54439382 1.120983,-0.002927 1.314155,-1.2497643 1.314155,-1.55415654 0,-0.081952 0,-0.2107331 -0.163904,-0.2107331 -0.1404883,0 -0.1434151,0.090732 -0.1580494,0.2282942 C 9.901181,-0.37726633 9.4826416,0.01200452 9.0231264,0.00907767 8.3587318,0.01200452 8.2153162,-0.65824378 8.1011692,-1.4162975 8.0923886,-1.5187372 8.00751,-2.1421559 7.9606804,-2.4933778 7.8611676,-3.2133825 7.8114112,-3.6728977 7.3753107,-4.1207055 7.2143341,-4.2699748 6.8396975,-4.6563188 6.0494484,-4.8729056 Z M 4.7089518,-5.0543702 3.102112,-5.057297 3.0962583,-8.8095167 c 0,-0.3278071 0,-0.503418 0.2985385,-0.5561012 0.1346351,-0.017561 0.5648818,-0.020488 0.8546398,-0.023415 1.1619588,0.00293 3.0000197,0.00293 3.0000197,2.1687947 -0.00293,1.2497643 -0.676102,2.1687947 -2.5405045,2.165868 z m 0,0"
       style="fill:#ffffff;fill-opacity:1;fill-rule:nonzero;stroke:none"
       aria-label="R"
       transform="matrix(2.6692533,-1.3346267,2.6692533,1.3346267,112.95326,127.46789)" />
    <path
       id="path29"
       d="M 8.1833577,-3.6765289 H 7.8672581 C 7.715062,-2.2365195 7.5365242,-0.42480031 5.0223614,-0.42187346 l -1.2497643,0.002927 c -0.6321993,0 -0.6585409,-0.096586 -0.6614677,-0.5678086 V -8.6902204 c 0.00585,-0.520979 0.032195,-0.693663 1.2819596,-0.6965899 h 0.4331736 l -0.00293,-0.4126856 c -0.4185393,0.026342 -1.680011,0.029269 -2.1834289,0.029269 -0.4273199,-0.00585 -1.70342584,-0.00585 -2.05464765,-0.029269 l 0.002927,0.4126856 0.28975799,-0.00293 c 1.03317746,0.00293 1.07415336,0.1492692 1.07708016,0.6790288 l -0.00293,7.6185865 c 0.00585,0.53268646 -0.043903,0.67024834 -1.07708021,0.66732149 l -0.28975799,0.002927 v 0.42146617819 h 7.2234681 z m 0,0"
       style="fill:#ffffff;fill-opacity:1;fill-rule:nonzero;stroke:none"
       aria-label="L"
       transform="matrix(2.6692533,-1.3346267,2.6692533,1.3346267,190.7006,164.25821)" />
    <path
       id="path30"
       d="m 9.3453975,-2.841441 c 0,-0.5619549 0.049756,-0.6292724 0.9658595,-0.6263456 l 0.0029,-0.4185393 c -0.3717094,0.026342 -1.3609842,0.020488 -1.7912309,0.023415 -0.4595152,-0.00293 -1.7063527,0.00293 -2.0956235,-0.023415 l -0.00293,0.4185393 0.4419542,-0.00293 c 1.2673253,0.00293 1.3170818,0.1697572 1.3170818,0.6848825 l -0.00585,0.9190304 c 0.00585,1.63318146 -1.8790367,1.7502554 -2.2536733,1.7502554 -1.1356172,0 -3.8166104,-0.69073624 -3.8195373,-4.7912509 0.00293,-4.1414906 2.7161154,-4.7766167 3.7141707,-4.7736899 1.2497643,-0.00293 2.7483107,0.8985425 3.1141668,3.4419738 0.032195,0.1609767 0.035122,0.1990257 0.2019525,0.2019526 0.2078063,-0.00293 0.2048794,-0.040976 0.2078063,-0.3307339 l 0.00293,-3.4039248 c -0.00585,-0.2517086 0,-0.3278066 -0.1492693,-0.3248796 -0.084879,-0.0029 -0.1024397,0.02634 -0.1843914,0.1668298 l -0.711201,1.1385473 C 7.887827,-9.3097761 7.018553,-10.097098 5.6575684,-10.100025 c -2.5990414,0 -4.88783688,2.2536731 -4.88783688,5.192229 0,2.973678 2.28294178,5.20979023 4.89369058,5.20979023 1.0185433,0 2.183429,-0.32195333 2.7161154,-1.25269114 0.251709,0.46244205 0.7287853,0.93951835 0.8458592,0.93951835 0.117074,0 0.1141471,-0.0848786 0.117074,-0.31609963 z m 0,0"
       style="fill:#ffffff;fill-opacity:1;fill-rule:nonzero;stroke:none"
       aria-label="G"
       transform="matrix(2.6692533,-1.3346267,2.6692533,1.3346267,187.7057,90.093005)" />
    <path
       id="path31"
       d="m 5.5483986,-9.9860825 c -0.05561,-0.1726845 -0.081952,-0.2575625 -0.2809774,-0.2575625 -0.2078063,0.0029 -0.2370748,0.0439 -0.3073191,0.2780504 L 1.9630093,-1.3957823 C 1.7639836,-0.81041259 1.3600785,-0.42992229 0.4439749,-0.42114175 V 3.244303e-4 C 1.3191026,-0.02601721 1.3483711,-0.02016351 1.8225205,-0.02601721 c 0.4009783,0.0029268 1.0887877,0 1.4575706,0.02926849 V -0.4182149 c -0.600004,-0.0146342 -0.9512258,-0.31902648 -0.9512258,-0.7170779 -0.00293,-0.084879 -0.00293,-0.1200008 0.067318,-0.2956117 l 0.6614678,-1.9141589 3.6146578,-0.00293 0.7843954,2.259527 c 0.076098,0.16975721 0.079025,0.19609885 0.079025,0.24292843 0,0.42146617 -0.7346389,0.42439302 -1.0975682,0.42439302 V 3.244303e-4 C 6.7659676,-0.02309036 7.9045116,-0.02016351 8.302563,-0.02016351 c 0.4039051,-0.0058537 1.4370826,-0.0029269 1.76489,0.0204879403 V -0.42114175 c -0.933665,0.002927 -1.1912277,0.002927 -1.3873265,-0.57951595 z m -0.6878094,1.4546437 1.6683036,4.770763 -3.3336803,0.00293 z m 0,0"
       style="fill:#ffffff;fill-opacity:1;fill-rule:nonzero;stroke:none"
       aria-label="A"
       transform="matrix(2.6692533,-1.3346267,2.6692533,1.3346267,264.02499,127.59601)" />
    <path
       id="path32"
       d="M 9.3686352,-9.7251203 H 0.76370069 L 0.50028433,-6.5231481 H 0.81638396 C 1.0154097,-8.7943825 1.144191,-9.3095078 3.4124985,-9.3124347 c 0.251709,0.00585 0.6585409,0.00293 0.7814686,0.032195 0.2780506,0.043903 0.2985385,0.2165868 0.2956117,0.5414669 v 7.6332208 c 0.00585,0.48585685 0.00293,0.6819557 -1.4078141,0.68780939 l -0.5180522,-0.002927 V 7.9712429e-4 C 3.0232277,-0.01969081 4.504213,-0.02554451 5.0603142,-0.01969081 c 0.5619549,0 2.0575745,-0.0029269 2.5141628,0.0204879343 V -0.42066905 H 7.0593517 c -1.4048872,0 -1.4019604,-0.19609885 -1.4078141,-0.68195565 v -7.6332208 c 0.00293,-0.3600024 0.029268,-0.4858569 0.2634164,-0.5443938 0.1082934,-0.032195 0.520979,-0.029269 0.7931759,-0.026342 2.2683076,-0.00293 2.3970889,0.5121985 2.5961146,2.7834329 l 0.3190265,0.00293 z m 0,0"
       style="fill:#ffffff;fill-opacity:1;fill-rule:nonzero;stroke:none"
       aria-label="T"
       transform="matrix(2.6692533,-1.3346267,2.6692533,1.3346267,264.53749,51.674441)" />
    <path
       id="path33"
       d="m 0.62079796,-9.7987642 0.002927,0.4126856 0.2839043,0.00293 c 1.03025064,0 1.06829964,0.1434156 1.07122644,0.6731751 l -0.00293,7.6185866 c 0.00585,0.53268638 -0.040976,0.6731751 -1.07122649,0.6731751 l -0.2839043,-0.002927 V 3.273803e-4 L 6.0091229,0.00325423 c 1.8556219,-0.0058537 3.1434353,-1.25854483 3.1434353,-2.62830983 0.00293,-1.1678126 -1.0507386,-2.3034298 -2.7541644,-2.4966018 1.3668382,-0.2604895 2.3502593,-1.1736662 2.3502593,-2.2507464 0,-1.2292764 -1.2439107,-2.4263574 -3.1258742,-2.4234306 z m 2.44684534,4.5658836 -0.00293,-3.573682 c 0.00585,-0.4741494 0.038049,-0.5824428 0.6643946,-0.5765891 l 1.8117192,-0.00293 c 1.4370826,-0.00293 1.9492811,1.2351301 1.9492811,2.0078181 0,0.9482989 -0.7463464,2.1453799 -2.3385519,2.1453799 z m 0.6585409,4.8146657 C 3.0998386,-0.4240686 3.0676433,-0.5148009 3.0647164,-0.9860235 l 0.00585,-3.9629528 2.6839201,0.00293 c 1.3785456,-0.00293 2.0926966,1.2029348 2.0897698,2.3122103 0,1.159032 -0.869274,2.2097706 -2.280015,2.2156243 z m 0,0"
       style="fill:#ffffff;fill-opacity:1;fill-rule:nonzero;stroke:none"
       aria-label="B"
       transform="matrix(2.6692533,-1.3346267,2.6692533,1.3346267,340.46707,89.374976)" />
    <path
       id="path34"
       d="m 85.04042,42.5202 85.04044,42.52022 M 56.69362,56.6936 141.73404,99.21382 M 28.3468,70.867 113.38724,113.38724 M 0.00995,85.03543 85.05038,127.55566 M 85.04042,42.5202 0,85.0404 M 113.38724,56.69362 28.3468,99.21382 M 141.73404,70.867 56.69362,113.38722 M 170.07089,85.03543 85.03047,127.55565"
       style="fill:none;stroke:#000000;stroke-width:0.3985;stroke-linecap:butt;stroke-linejoin:miter;stroke-miterlimit:10;stroke-dasharray:none;stroke-opacity:1"
       transform="matrix(2.6692533,0,0,-2.6692533,38.003295,341.01883)" />
  </g>
</svg>
