<?xml version="1.0" encoding="UTF-8" standalone="no"?>
<!-- Created with Inkscape (http://www.inkscape.org/) -->

<svg
   version="1.1"
   id="svg1"
   width="456"
   height="456"
   viewBox="0 0 456 456"
   xmlns="http://www.w3.org/2000/svg"
   xmlns:svg="http://www.w3.org/2000/svg">
  <defs
     id="defs1">
    <linearGradient
       x1="0"
       y1="0"
       x2="0"
       y2="100.00128"
       gradientUnits="userSpaceOnUse"
       id="linearGradient5">
      <stop
         style="stop-opacity:1;stop-color:#f9f4e8"
         offset="0"
         id="stop1" />
      <stop
         style="stop-opacity:1;stop-color:#f9f4e8"
         offset="0.25"
         id="stop2" />
      <stop
         style="stop-opacity:1;stop-color:#e5ce95"
         offset="0.5"
         id="stop3" />
      <stop
         style="stop-opacity:1;stop-color:#d1a843"
         offset="0.75"
         id="stop4" />
      <stop
         style="stop-opacity:1;stop-color:#d1a843"
         offset="1"
         id="stop5" />
    </linearGradient>
    <clipPath
       clipPathUnits="userSpaceOnUse"
       id="clipPath5">
      <path
         d="M 0,0 V 85.04042 L 85.04042,42.52022 V -42.5202 Z"
         transform="matrix(2.6692533,0,0,-2.6692533,0.66996144,341.97217)"
         id="path5" />
    </clipPath>
    <clipPath
       clipPathUnits="userSpaceOnUse"
       id="clipPath6">
      <path
         d="M 0,0 H 378.762 V 341.285 H 0 Z"
         transform="matrix(0.49951548,-0.24975775,0,-0.49951548,-23.145425,115.80172)"
         id="path6" />
    </clipPath>
    <clipPath
       clipPathUnits="userSpaceOnUse"
       id="clipPath7">
      <path
         d="M 0,0 H 378.762 V 341.285 H 0 Z"
         transform="matrix(0.49951548,-0.24975775,0,-0.49951548,-49.541426,115.80272)"
         id="path7" />
    </clipPath>
    <clipPath
       clipPathUnits="userSpaceOnUse"
       id="clipPath8">
      <path
         d="M 0,0 H 378.762 V 341.285 H 0 Z"
         transform="matrix(0.49951548,-0.24975775,0,-0.49951548,-24.508425,87.455214)"
         id="path8" />
    </clipPath>
    <clipPath
       clipPathUnits="userSpaceOnUse"
       id="clipPath9">
      <path
         d="M 0,0 H 378.762 V 341.285 H 0 Z"
         transform="matrix(0.49951548,-0.24975775,0,-0.49951548,-51.978425,87.455216)"
         id="path9" />
    </clipPath>
    <clipPath
       clipPathUnits="userSpaceOnUse"
       id="clipPath10">
      <path
         d="M 0,0 H 378.762 V 341.285 H 0 Z"
         transform="matrix(0.49951548,-0.24975775,0,-0.49951548,-79.838426,87.456217)"
         id="path10" />
    </clipPath>
    <clipPath
       clipPathUnits="userSpaceOnUse"
       id="clipPath11">
      <path
         d="M 0,0 H 378.762 V 341.285 H 0 Z"
         transform="matrix(0.49951548,0,0,0.49951548,-14.237425,-42.718999)"
         id="path11" />
    </clipPath>
    <linearGradient
       x1="0"
       y1="0"
       x2="0"
       y2="100.00128"
       gradientUnits="userSpaceOnUse"
       id="linearGradient15">
      <stop
         style="stop-opacity:1;stop-color:#46556d"
         offset="0"
         id="stop11" />
      <stop
         style="stop-opacity:1;stop-color:#46556d"
         offset="0.25"
         id="stop12" />
      <stop
         style="stop-opacity:1;stop-color:#97a0ad"
         offset="0.5"
         id="stop13" />
      <stop
         style="stop-opacity:1;stop-color:#e8eaed"
         offset="0.75"
         id="stop14" />
      <stop
         style="stop-opacity:1;stop-color:#e8eaed"
         offset="1"
         id="stop15" />
    </linearGradient>
    <clipPath
       clipPathUnits="userSpaceOnUse"
       id="clipPath15">
      <path
         d="M 85.04042,-42.52022 V 42.5202 l 85.04044,42.52022 V 0 Z"
         transform="matrix(2.6692533,0,0,-2.6692533,0.66996144,341.97217)"
         id="path15" />
    </clipPath>
    <clipPath
       clipPathUnits="userSpaceOnUse"
       id="clipPath16">
      <path
         d="M 0,0 H 378.762 V 341.285 H 0 Z"
         transform="matrix(0.49951548,0.24975775,0,-0.49951548,-108.18442,16.525786)"
         id="path16" />
    </clipPath>
    <clipPath
       clipPathUnits="userSpaceOnUse"
       id="clipPath17">
      <path
         d="M 0,0 H 378.762 V 341.285 H 0 Z"
         transform="matrix(0.49951548,0.24975775,0,-0.49951548,-136.72343,16.525285)"
         id="path17" />
    </clipPath>
    <clipPath
       clipPathUnits="userSpaceOnUse"
       id="clipPath18">
      <path
         d="M 0,0 H 378.762 V 341.285 H 0 Z"
         transform="matrix(0.49951548,0.24975775,0,-0.49951548,-137.89443,-11.821214)"
         id="path18" />
    </clipPath>
    <clipPath
       clipPathUnits="userSpaceOnUse"
       id="clipPath19">
      <path
         d="M 0,0 H 378.762 V 341.285 H 0 Z"
         transform="matrix(0.49951548,0.24975775,0,-0.49951548,-164.77843,-11.821216)"
         id="path19" />
    </clipPath>
    <clipPath
       clipPathUnits="userSpaceOnUse"
       id="clipPath20">
      <path
         d="M 0,0 H 378.762 V 341.285 H 0 Z"
         transform="matrix(0.49951548,0,0,0.49951548,-14.237425,-42.718999)"
         id="path20" />
    </clipPath>
    <linearGradient
       x1="0"
       y1="0"
       x2="0"
       y2="100.00128"
       gradientUnits="userSpaceOnUse"
       id="linearGradient24">
      <stop
         style="stop-opacity:1;stop-color:#e6e6e6"
         offset="0"
         id="stop20" />
      <stop
         style="stop-opacity:1;stop-color:#e6e6e6"
         offset="0.25"
         id="stop21" />
      <stop
         style="stop-opacity:1;stop-color:#808080"
         offset="0.5"
         id="stop22" />
      <stop
         style="stop-opacity:1;stop-color:#191919"
         offset="0.75"
         id="stop23" />
      <stop
         style="stop-opacity:1;stop-color:#191919"
         offset="1"
         id="stop24" />
    </linearGradient>
    <clipPath
       clipPathUnits="userSpaceOnUse"
       id="clipPath24">
      <path
         d="M 85.04042,127.56062 170.08086,85.04042 85.04042,42.5202 0,85.0404 Z"
         transform="matrix(2.6692533,0,0,-2.6692533,0.66996144,341.97217)"
         id="path24" />
    </clipPath>
    <clipPath
       clipPathUnits="userSpaceOnUse"
       id="clipPath25">
      <path
         d="M 0,0 H 378.762 V 341.285 H 0 Z"
         transform="matrix(0.24975774,0.24975774,0.49951546,-0.49951546,-143.88121,101.56479)"
         id="path25" />
    </clipPath>
    <clipPath
       clipPathUnits="userSpaceOnUse"
       id="clipPath26">
      <path
         d="M 0,0 H 378.762 V 341.285 H 0 Z"
         transform="matrix(0.24975774,0.24975774,0.49951546,-0.49951546,-144.66171,73.218284)"
         id="path26" />
    </clipPath>
    <clipPath
       clipPathUnits="userSpaceOnUse"
       id="clipPath27">
      <path
         d="M 0,0 H 378.762 V 341.285 H 0 Z"
         transform="matrix(0.24975774,0.24975774,0.49951546,-0.49951546,-171.88571,101.56428)"
         id="path27" />
    </clipPath>
    <clipPath
       clipPathUnits="userSpaceOnUse"
       id="clipPath28">
      <path
         d="M 0,0 H 378.762 V 341.285 H 0 Z"
         transform="matrix(0.24975774,0.24975774,0.49951546,-0.49951546,-172.13171,73.218282)"
         id="path28" />
    </clipPath>
    <clipPath
       clipPathUnits="userSpaceOnUse"
       id="clipPath29">
      <path
         d="M 0,0 H 378.762 V 341.285 H 0 Z"
         transform="matrix(0.24975774,0.24975774,0.49951546,-0.49951546,-200.67071,101.56528)"
         id="path29" />
    </clipPath>
    <clipPath
       clipPathUnits="userSpaceOnUse"
       id="clipPath30">
      <path
         d="M 0,0 H 378.762 V 341.285 H 0 Z"
         transform="matrix(0.24975774,0.24975774,0.49951546,-0.49951546,-200.76971,73.218284)"
         id="path30" />
    </clipPath>
    <clipPath
       clipPathUnits="userSpaceOnUse"
       id="clipPath31">
      <path
         d="M 0,0 H 378.762 V 341.285 H 0 Z"
         transform="matrix(0.49951548,0,0,0.49951548,-14.237425,-42.718999)"
         id="path31" />
    </clipPath>
  </defs>
  <g
     id="g1">
    <g
       id="g52">
      <g
         clip-path="url(#clipPath5)"
         id="g32">
        <path
           d="M 0,0 H 100 V 100 H 0 Z"
           transform="matrix(0,-6.8106266,-4.5403999,0,341.18714,625.7549)"
           style="fill:url(#linearGradient5);stroke:none"
           id="path32" />
      </g>
      <path
         d="m 8.5645388,-8.7081281 c 0,-0.5326864 0.040976,-0.676102 1.0770802,-0.6790288 l 0.2868311,0.00293 v -0.4156124 c -0.3453681,0.026342 -1.5219612,0.029268 -1.9375736,0.026342 -0.4273199,0.00293 -1.6097667,0.00293 -1.9492811,-0.026342 v 0.4156124 h 0.2809774 c 1.0419581,0 1.082934,0.1375619 1.082934,0.6702483 v 3.4009979 l -4.2907599,0.00293 v -3.4009979 c 0,-0.5326864 0.040976,-0.6702483 1.0770803,-0.6731752 l 0.2868311,-0.00293 v -0.4156125 c -0.3453681,0.032195 -1.5278149,0.032195 -1.9375737,0.032195 -0.4331735,0 -1.60976662,0.00293 -1.95513474,-0.029268 v 0.4156124 l 0.28683115,0.00293 c 1.03610439,-0.00293 1.08293389,0.1375619 1.08293389,0.6702483 v 7.6156597 c 0,0.53854008 -0.04683,0.67317511 -1.08293389,0.67610196 l -0.28683115,-0.002927 V -7.5391058e-4 C 0.93131798,-0.02124185 2.1079111,-0.0241687 2.5235235,-0.02124185 2.9508434,-0.0241687 4.1332902,-0.0241687 4.4786583,-0.00368076 v -0.42146618 l -0.2868311,0.002927 C 3.1557228,-0.41929324 3.1147469,-0.55685512 3.1147469,-1.0953952 v -3.7931956 l 4.2907599,-0.00293 v 3.7931956 c 0,0.53854013 -0.040976,0.67610201 -1.082934,0.67610201 H 6.0415954 V -7.5391058e-4 C 6.3811098,-0.0241687 7.5635566,-0.0241687 7.9733154,-0.0241687 c 0.4331735,0 1.6097666,-0.0029268 1.9551347,0.0234147894 V -0.42222009 L 9.641619,-0.42514694 C 8.6055146,-0.42222009 8.5645388,-0.55392827 8.5645388,-1.0924684 Z m 0,0"
         style="fill:#182b49;fill-opacity:1;fill-rule:nonzero;stroke:none"
         aria-label="H"
         transform="matrix(2.6692533,1.3346267,0,2.6692533,24.44767,177.78639)"
         clip-path="url(#clipPath6)"
         id="path33" />
      <path
         d="m 12.814106,-8.3917601 c 0.228294,-0.6936631 0.643906,-0.9775674 1.358057,-0.9892748 v -0.4156125 c -0.614638,0.026342 -0.643906,0.029268 -1.276106,0.023415 -0.374636,0.00585 -1.147324,0.00585 -1.492692,-0.026342 v 0.4156125 c 0.8722,0.020488 1.135617,0.4741495 1.135617,0.7668343 0,0.070244 -0.04098,0.1785378 -0.07024,0.2809775 L 10.291167,-1.540008 7.9613958,-8.7517626 c -0.011707,-0.04683 -0.04683,-0.1580498 -0.04683,-0.1990257 0,-0.4331736 0.7668343,-0.4361004 1.1063487,-0.4302467 v -0.4156125 c -0.3395144,0.023415 -1.4048872,0.029268 -1.8204997,0.026342 -0.4156125,0.00293 -1.2878133,0 -1.6624499,-0.029269 v 0.4156125 c 0.7609806,0 0.9600063,0.04683 1.1180561,0.2956117 0.1053665,0.193172 0.2048794,0.6409798 0.386344,1.1531783 L 4.9935664,-1.5370811 2.6989173,-8.684445 c -0.076098,-0.1960988 -0.076098,-0.2253673 -0.076098,-0.2663432 0,-0.4331736 0.7317121,-0.4302467 1.1063487,-0.4361004 v -0.4156125 c -0.3336607,0.032195 -1.4224483,0.032195 -1.8204997,0.032195 -0.4156125,-0.00293 -1.28781335,0 -1.66244995,-0.029269 v 0.4156125 c 0.77268795,0 1.04781175,-0.00293 1.21756895,0.5502475 l 2.839043,8.85957031 c 0.076098,0.21365994 0.134635,0.27219691 0.2575627,0.27512376 0.1170739,-0.005854 0.1873183,-0.0409759 0.2634163,-0.25463582 L 7.2004103,-7.3995593 9.5945723,0.04927 c 0.076098,0.20780624 0.1463424,0.24878212 0.2575627,0.25170897 0.134635,-0.002927 0.193172,-0.0614638 0.263416,-0.27805061 z m 0,0"
         style="fill:#182b49;fill-opacity:1;fill-rule:nonzero;stroke:none"
         aria-label="W"
         transform="matrix(2.6692533,1.3346267,0,2.6692533,94.905281,213.01253)"
         clip-path="url(#clipPath7)"
         id="path34" />
      <path
         d="M 2.9854136,-5.9824731 C 2.2537014,-6.1727183 1.6097948,-6.8868693 1.6097948,-7.8058997 c 0,-1.0068359 0.7961028,-1.9024515 1.9200126,-1.9083052 2.3473324,0.00293 2.6692858,2.3239177 2.7512375,2.9444095 0.035122,0.1697572 0.035122,0.2224405 0.1756109,0.2224405 0.1580498,0.00293 0.1580498,-0.067317 0.1580498,-0.3248802 V -9.769815 c 0,-0.257563 0,-0.327807 -0.1404887,-0.327807 -0.04683,0 -0.099513,-0.0029 -0.2048794,0.1785377 l -0.4741494,0.8809814 c -0.6907363,-0.889762 -1.6331815,-1.0565921 -2.2653807,-1.0624461 -1.5922056,0 -2.75709128,1.2790329 -2.75709128,2.7424571 0,0.6907362 0.24585528,1.3170818 0.77854168,1.8878172 0.5034179,0.5561012 1.0009822,0.6936631 2.0195254,0.9570795 0.503418,0.1112202 1.2936671,0.3073191 1.4926928,0.3951245 0.6731751,0.3307339 1.1180561,1.1092756 1.1180561,1.9053784 0,1.0829339 -0.7551269,2.09269662 -1.9492811,2.09269662 -0.6439067,0 -1.5336686,-0.15804982 -2.2361122,-0.77268799 C 1.1649138,-1.6419569 1.1063768,-2.6722075 1.0888158,-3.1434301 1.0771084,-3.2605041 0.96588812,-3.2634309 0.93076593,-3.2575772 0.77271612,-3.2605041 0.77271612,-3.184406 0.77271612,-2.9268433 v 2.90343362 c 0,0.25170897 0,0.32195333 0.14634242,0.31902648 C 1.006864,0.2985438 1.0185714,0.2751289 1.1180842,0.1024448 1.1766212,-0.00877544 1.4751597,-0.54438871 1.5922337,-0.76097549 2.107359,-0.1814595 3.0088283,0.29854365 4.2439584,0.3014705 5.853725,0.29854365 7.0186107,-1.0624409 7.0186107,-2.642939 7.0186107,-3.5151399 6.68495,-4.1619734 6.298606,-4.6361228 5.7659196,-5.2829564 5.1220129,-5.4410062 4.560058,-5.5814949 Z m 0,0"
         style="fill:#182b49;fill-opacity:1;fill-rule:nonzero;stroke:none"
         aria-label="S"
         transform="matrix(2.6692533,1.3346267,0,2.6692533,28.085862,255.26948)"
         clip-path="url(#clipPath8)"
         id="path35" />
      <path
         d="M 3.1258385,-4.5592931 H 5.549269 c 1.680011,0.00293 3.2136796,-1.1326903 3.2136796,-2.5844072 0,-1.3873261 -1.3931799,-2.6517247 -3.3307535,-2.6546515 l -4.8293,-0.00293 v 0.4156125 l 0.28683115,0.00293 c 1.03025065,0 1.07122655,0.1434155 1.07122655,0.676102 v 7.6156596 c 0,0.53854016 -0.040976,0.67024834 -1.07122655,0.67024834 l -0.28683115,-0.002927 v 0.42146618 c 0.34536812,-0.02048794 1.5219612,-0.01756109 1.9375737,-0.02048794 0.4273199,0.0029268 1.6039129,0 1.9492811,0.02634164 v -0.42146618 l -0.2868312,-0.002927 c -1.0302507,0 -1.0770802,-0.13463503 -1.0770802,-0.67317514 z M 3.09657,-4.907588 v -3.8985622 c 0,-0.4682957 0.029269,-0.5765891 0.6614677,-0.5765891 H 5.104388 c 2.3239177,0.00293 2.3239177,1.6244009 2.3239177,2.239039 0,0.6029308 0,2.2361123 -2.3356251,2.2331854 z m 0,0"
         style="fill:#182b49;fill-opacity:1;fill-rule:nonzero;stroke:none"
         aria-label="P"
         transform="matrix(2.6692533,1.3346267,0,2.6692533,101.41025,291.93167)"
         clip-path="url(#clipPath9)"
         id="path36" />
      <path
         d="m 8.5645934,-8.7071008 c 0,-0.5326864 0.040976,-0.676102 1.0770802,-0.6790288 l 0.2868311,0.00293 V -9.798812 C 9.5831366,-9.77247 8.4065435,-9.769544 7.9909311,-9.77247 7.5636112,-9.76954 6.3811644,-9.76954 6.04165,-9.798812 v 0.4156124 h 0.2809774 c 1.0419581,0 1.082934,0.1375619 1.082934,0.6702483 v 3.4009979 l -4.2907599,0.00293 v -3.4009979 c 0,-0.5326864 0.040976,-0.6702483 1.0770803,-0.6731752 l 0.2868311,-0.00293 V -9.801739 c -0.3453681,0.032195 -1.5278149,0.032195 -1.9375737,0.032195 -0.4331735,0 -1.60976661,0.00293 -1.95513473,-0.029268 v 0.4156124 l 0.28683115,0.00293 C 1.90894,-9.3832028 1.9557695,-9.242714 1.9557695,-8.7100276 v 7.6156597 c 0,0.53854009 -0.046829,0.67317512 -1.08293388,0.67610197 l -0.28683115,-0.002927 V 2.7339543e-4 C 0.93137259,-0.02021454 2.1079657,-0.02314139 2.5235782,-0.02021454 c 0.4273198,-0.0029269 1.6097666,-0.0029269 1.9551347,0.01756109 v -0.42146618 l -0.2868311,0.002927 C 3.1557774,-0.41826593 3.1148015,-0.55582781 3.1148015,-1.0943679 v -3.7931956 l 4.2907599,-0.00293 v 3.7931956 c 0,0.53854014 -0.040976,0.67610202 -1.082934,0.67610202 H 6.04165 V 2.7339543e-4 C 6.3811644,-0.02314139 7.5636112,-0.02314139 7.97337,-0.02314139 c 0.4331735,0 1.6097666,-0.0029268 1.9551347,0.0234147854 V -0.42119278 l -0.2868311,-0.002927 C 8.6055692,-0.42119278 8.5645934,-0.55290096 8.5645934,-1.0914411 Z m 0,0"
         style="fill:#182b49;fill-opacity:1;fill-rule:nonzero;stroke:none"
         aria-label="H"
         transform="matrix(2.6692533,1.3346267,0,2.6692533,175.77565,329.1117)"
         clip-path="url(#clipPath10)"
         id="path37" />
      <path
         d="M 0,0 85.04042,-42.5202 M 0,28.3468 85.04042,-14.17339 M 0,56.69362 85.04042,14.1734 M 0,85.03047 85.04042,42.51025 M 0,0 V 85.04042 M 28.3468,-14.17339 V 70.86702 M 56.69362,-28.3468 v 85.04042 m 28.33685,-99.20885 v 85.04042"
         style="fill:none;stroke:#000000;stroke-width:0.3985;stroke-linecap:butt;stroke-linejoin:miter;stroke-miterlimit:10;stroke-dasharray:none;stroke-opacity:1"
         transform="matrix(2.6692533,0,0,-2.6692533,0.66996144,341.97217)"
         clip-path="url(#clipPath11)"
         id="path38" />
      <g
         clip-path="url(#clipPath15)"
         id="g39">
        <path
           d="M 0,0 H 100 V 100 H 0 Z"
           transform="matrix(0,-6.8106266,-4.5403999,0,568.18157,625.7549)"
           style="fill:url(#linearGradient15);stroke:none"
           id="path39" />
      </g>
      <path
         d="m 8.1773133,-3.298245 c 0,2.007818 -1.3580577,3.1844111 -2.7102617,3.18148425 C 4.6065581,-0.1196876 3.1138654,-0.68456935 3.1138654,-3.201659 v -5.5083288 c 0,-0.5326864 0.040976,-0.676102 1.0770803,-0.6731752 l 0.2868311,0.00293 v -0.4156125 c -0.3453681,0.026342 -1.5278149,0.026342 -1.9375737,0.026342 -0.4331735,0 -1.60976663,-0.00293 -1.95513475,-0.029268 v 0.4156124 l 0.28683115,-0.00293 c 1.0361044,0.00293 1.0829339,0.1434156 1.0829339,0.676102 v 5.426377 c 0,2.0780624 1.6565963,3.57953568 3.477096,3.58246253 C 7.42804,0.29592488 8.5636572,-1.6533562 8.5636572,-3.0875119 v -5.4205234 c 0,-0.8780545 1.1063488,-0.8751277 1.3639114,-0.8751277 v -0.4156124 c -0.3746366,0.029268 -1.1473246,0.029268 -1.5512297,0.026342 -0.4156124,0.00293 -1.1883004,0.00293 -1.5570833,-0.023415 v 0.4156125 c 1.3580577,-0.00585 1.3580577,0.6673214 1.3580577,1.0595191 z m 0,0"
         style="fill:#c69214;fill-opacity:1;fill-rule:nonzero;stroke:none"
         aria-label="U"
         transform="matrix(2.6692533,-1.3346267,0,2.6692533,251.4383,267.50267)"
         clip-path="url(#clipPath16)"
         id="path40" />
      <path
         d="m 9.3487519,-9.7729338 c 0,-0.2575622 0,-0.3278072 -0.1404887,-0.3278072 -0.081952,0.0059 -0.099513,0.02634 -0.1873183,0.1697574 L 8.3185013,-8.8012201 C 7.6745946,-9.5973229 6.7028809,-10.094887 5.6667766,-10.097814 c -2.6224562,0 -4.89369064,2.2653807 -4.89369064,5.1863755 0,2.973678 2.29464914,5.20979023 4.89369064,5.20979023 2.3531861,0 3.6819753,-2.05172073 3.6819753,-3.63221893 0,-0.1580498 0,-0.2400016 -0.1521961,-0.2341479 -0.1463424,-0.00293 -0.1580498,0.067318 -0.1580498,0.1668304 -0.1287813,2.2829418 -1.7912313,3.28392395 -3.1844111,3.28392395 -1.0068359,0 -3.746366,-0.60293079 -3.746366,-4.79417775 0,-4.1385637 2.6985542,-4.7795436 3.7288049,-4.7795436 1.5102538,0.00585 2.8273356,1.2790328 3.1141667,3.4302664 0.029269,0.1785378 0.029269,0.2195137 0.1990257,0.2165868 0.1990257,0 0.1990257,-0.040976 0.1990257,-0.327807 z m 0,0"
         style="fill:#c69214;fill-opacity:1;fill-rule:nonzero;stroke:none"
         aria-label="C"
         transform="matrix(2.6692533,-1.3346267,0,2.6692533,327.61613,229.41509)"
         clip-path="url(#clipPath17)"
         id="path41" />
      <path
         d="M 2.9855228,-5.9826378 C 2.2538107,-6.1670292 1.609904,-6.8811802 1.609904,-7.8002106 c 0,-1.0068359 0.7961028,-1.9141589 1.9200126,-1.9083052 2.3473325,-0.00293 2.6692858,2.3239176 2.7512375,2.9327021 0.035122,0.1814646 0.035122,0.2341479 0.1756109,0.2341479 0.1580499,-0.00293 0.1580499,-0.073171 0.1580499,-0.3307339 v -2.89758 c 0,-0.2575623 0,-0.3278073 -0.1404888,-0.3278073 -0.04683,0 -0.099513,0.0029 -0.2048794,0.1843918 L 5.7952973,-9.0382675 C 5.1045611,-9.9280295 4.1621159,-10.100714 3.5299166,-10.09486 c -1.5922056,0 -2.75709126,1.2731792 -2.75709126,2.7366035 0,0.6907362 0.24585526,1.3170818 0.77854166,1.8936709 0.503418,0.5561012 1.0009822,0.6878094 2.0195255,0.9512258 0.5034179,0.1112202 1.293667,0.3131728 1.4926927,0.4009782 0.6731751,0.3248802 1.1180561,1.1034219 1.1180561,1.8995247 0,1.0829339 -0.7551269,2.0985503 -1.9492811,2.0985503 -0.6439066,0 -1.5336686,-0.15804982 -2.2361122,-0.77268799 C 1.165023,-1.6362678 1.1064861,-2.6665185 1.088925,-3.1435948 1.0772176,-3.2606687 0.96599734,-3.2577418 0.93087516,-3.2635955 c -0.15804982,0.00293 -0.15804982,0.079025 -0.15804982,0.3365875 v 2.9034337 c 0,0.25170897 0,0.32195333 0.14634242,0.32488018 0.0878054,-0.002927 0.0995128,-0.0263416 0.19902574,-0.20487939 0.058537,-0.11122024 0.3570755,-0.64097981 0.4741494,-0.8575666 0.5151253,0.579516 1.4165947,1.05951914 2.6517247,1.0565923 1.6097667,0.002927 2.7746523,-1.35220399 2.7746523,-2.93270219 0,-0.8722008 -0.3336607,-1.524888 -0.7200047,-1.9990375 -0.5326864,-0.6409798 -1.1765931,-0.7990296 -1.738548,-0.9512257 z m 0,0"
         style="fill:#c69214;fill-opacity:1;fill-rule:nonzero;stroke:none"
         aria-label="S"
         transform="matrix(2.6692533,-1.3346267,0,2.6692533,330.74182,303.51623)"
         clip-path="url(#clipPath18)"
         id="path42" />
      <path
         d="m 0.60363463,-9.7955896 v 0.4156125 l 0.28683115,-0.00293 c 1.03025062,0 1.07122652,0.1375619 1.07122652,0.6702483 v 7.6156597 c 0,0.53854015 -0.040976,0.67610203 -1.07122652,0.67610203 l -0.28683115,0.002927 V 0.00349905 H 5.6261066 C 8.0202686,5.72203e-4 9.9461349,-2.1506614 9.9461349,-4.8023861 c 0,-2.7687987 -1.9375737,-4.9961303 -4.3200283,-4.9932035 z m 3.15514267,9.37469563 c -0.6321993,0 -0.6614678,-0.096586 -0.6614678,-0.57073545 V -8.8121685 c 0,-0.4682958 0.029268,-0.5707355 0.6614678,-0.5707355 h 1.5102538 c 1.1883004,0.00293 2.1365993,0.5765892 2.721969,1.5248881 0.6439067,1.0185433 0.6439067,2.4702601 0.6439067,3.0380687 0,0.8078102 -0.011707,2.1483068 -0.8253713,3.2107528 -0.4800031,0.6087844 -1.3346429,1.18830043 -2.5405044,1.18830043 z m 0,0"
         style="fill:#c69214;fill-opacity:1;fill-rule:nonzero;stroke:none"
         aria-label="D"
         transform="matrix(2.6692533,-1.3346267,0,2.6692533,402.50203,267.63613)"
         clip-path="url(#clipPath19)"
         id="path43" />
      <path
         d="M 85.04042,-42.52022 170.08086,0 M 85.04042,-14.1734 170.08086,28.3468 M 85.04042,14.17339 170.08086,56.69362 M 85.04042,42.51024 170.08086,85.03047 M 85.04042,-42.52022 V 42.5202 m 28.34682,-70.867 v 85.04042 m 28.3468,-70.86702 V 70.867 m 28.33685,-70.87197 v 85.0404"
         style="fill:none;stroke:#000000;stroke-width:0.3985;stroke-linecap:butt;stroke-linejoin:miter;stroke-miterlimit:10;stroke-dasharray:none;stroke-opacity:1"
         transform="matrix(2.6692533,0,0,-2.6692533,0.66996144,341.97217)"
         clip-path="url(#clipPath20)"
         id="path44" />
      <g
         clip-path="url(#clipPath24)"
         id="g45">
        <path
           d="M 0,0 H 100 V 100 H 0 Z"
           transform="matrix(9.0808532,0,0,-4.5403999,-226.37828,341.99779)"
           style="fill:url(#linearGradient24);stroke:none"
           id="path45" />
      </g>
      <path
         d="m 6.0497703,-4.8727397 c 1.4283021,-0.3395144 2.531724,-1.2380569 2.5346508,-2.3473325 -0.00293,-1.3843993 -1.6273277,-2.5756266 -3.6936827,-2.5814803 l -4.29075988,0.00585 0.002927,0.4126856 0.289758,-0.00293 c 1.03025068,0 1.06829968,0.1434156 1.07122658,0.6731751 l -0.00293,7.6185866 c 0.00585,0.53268638 -0.040976,0.6731751 -1.07122653,0.6731751 l -0.28975799,0.002927 V 0.00338308 C 0.9336363,-0.02588541 2.1073026,-0.02295856 2.5258419,-0.02588541 c 0.4156125,0.0058537 1.6068398,0.0029269 1.9346468,0.026341639 V -0.4210032 l -0.289758,0.002927 c -1.0302506,0 -1.0682997,-0.14341557 -1.0741533,-0.6761019 l 0.00293,-3.6731949 1.6653768,0.00293 c 0.5619549,0 1.0917144,0.155123 1.4751316,0.5619549 0.4858568,0.5443938 0.4887837,0.8400055 0.4858568,1.832207 0.00585,1.1297636 0.00293,1.50147334 0.6409798,2.12781891 0.2078063,0.21951363 0.8107371,0.54146696 1.6097667,0.54439381 1.1209829,-0.002927 1.3141549,-1.24976429 1.3141549,-1.55415652 0,-0.081952 0,-0.210733 -0.163904,-0.210733 -0.1404882,0 -0.143415,0.090732 -0.1580493,0.2282941 C 9.9015029,-0.37710047 9.4829636,0.01217037 9.0234484,0.00924352 8.3590538,0.01217037 8.2156382,-0.65807792 8.1014911,-1.4161317 8.0927106,-1.5185714 8.007832,-2.1419901 7.9610024,-2.4932119 7.8614895,-3.2132166 7.8117331,-3.6727318 7.3756327,-4.1205396 7.214656,-4.2698089 6.8400194,-4.6561529 6.0497703,-4.8727397 Z m -1.3404965,-0.1814646 -1.6068399,-0.00293 -0.00585,-3.7522197 c 0,-0.327807 0,-0.5034179 0.2985385,-0.5561012 0.134635,-0.017561 0.5648817,-0.020488 0.8546397,-0.023415 1.1619589,0.00293 3.0000197,0.00293 3.0000197,2.1687947 -0.00293,1.2497643 -0.676102,2.1687947 -2.5405044,2.1658679 z m 0,0"
         style="fill:#ffffff;fill-opacity:1;fill-rule:nonzero;stroke:none"
         aria-label="R"
         transform="matrix(2.6692533,-1.3346267,2.6692533,1.3346267,75.619926,128.42122)"
         clip-path="url(#clipPath25)"
         id="path46" />
      <path
         d="M 8.1836797,-3.6763631 H 7.8675801 c -0.1521962,1.4400095 -0.3307339,3.25172865 -2.8448967,3.2546555 l -1.2497643,0.002927 c -0.6321993,0 -0.6585409,-0.096586 -0.6614678,-0.5678086 v -7.7034651 c 0.00585,-0.520979 0.032195,-0.6936631 1.2819596,-0.6965899 h 0.4331736 l -0.00293,-0.4126857 c -0.4185394,0.026342 -1.680011,0.029269 -2.183429,0.029269 -0.4273199,-0.00585 -1.70342579,-0.00585 -2.0546476,-0.029269 l 0.002927,0.4126857 0.289758,-0.00293 c 1.0331776,0.00293 1.0741534,0.1492693 1.0770803,0.6790289 l -0.00293,7.6185865 c 0.00585,0.53268638 -0.043903,0.67024826 -1.07708025,0.66732141 l -0.289758,0.002927 V -2.4421707e-4 H 7.8090369 Z m 0,0"
         style="fill:#ffffff;fill-opacity:1;fill-rule:nonzero;stroke:none"
         aria-label="L"
         transform="matrix(2.6692533,-1.3346267,2.6692533,1.3346267,153.36727,165.21154)"
         clip-path="url(#clipPath26)"
         id="path47" />
      <path
         d="m 9.3449877,-2.8420069 c 0,-0.5619549 0.049756,-0.6292724 0.9658603,-0.6263455 l 0.0029,-0.4185394 c -0.3717102,0.026342 -1.360985,0.020488 -1.7912317,0.023415 -0.4595152,-0.00293 -1.7063526,0.00293 -2.0956235,-0.023415 l -0.00293,0.4185394 0.4419541,-0.00293 c 1.2673254,0.00293 1.3170818,0.1697572 1.3170818,0.6848825 l -0.00585,0.9190305 c 0.00585,1.6331814 -1.8790367,1.75025534 -2.2536733,1.75025534 -1.1356172,0 -3.8166104,-0.69073624 -3.8195372,-4.79125094 0.00293,-4.1414905 2.7161153,-4.7766167 3.7141707,-4.7736898 1.2497642,-0.00293 2.7483107,0.8985425 3.1141667,3.4419738 0.032195,0.1609766 0.035122,0.1990257 0.2019526,0.2019525 0.2078062,-0.00293 0.2048793,-0.040976 0.2078062,-0.3307339 l 0.00293,-3.4039247 c -0.00585,-0.2517089 0,-0.3278069 -0.1492692,-0.3248799 -0.084879,-0.0029 -0.1024397,0.02634 -0.1843915,0.1668301 l -0.7112242,1.138544 C 7.8874172,-9.310342 7.0181432,-10.097664 5.6571587,-10.100591 c -2.5990414,0 -4.88783694,2.2536733 -4.88783694,5.1922291 0,2.973678 2.28294184,5.20979027 4.89369064,5.20979027 1.0185432,0 2.1834289,-0.32195333 2.7161154,-1.25269114 0.2517089,0.46244206 0.7287852,0.93951836 0.8458592,0.93951836 0.1170739,0 0.114147,-0.08487861 0.1170739,-0.31609964 z m 0,0"
         style="fill:#ffffff;fill-opacity:1;fill-rule:nonzero;stroke:none"
         aria-label="G"
         transform="matrix(2.6692533,-1.3346267,2.6692533,1.3346267,150.37237,91.046338)"
         clip-path="url(#clipPath27)"
         id="path48" />
      <path
         d="m 5.5487206,-9.9859167 c -0.05561,-0.1726843 -0.081952,-0.2575623 -0.2809775,-0.2575623 -0.2078062,0.0029 -0.2370747,0.0439 -0.3073191,0.2780503 L 1.9633312,-1.3956164 C 1.7643055,-0.81024674 1.3604004,-0.42975644 0.44429686,-0.42097589 V 4.9028505e-4 C 1.3194245,-0.02585135 1.348693,-0.01999765 1.8228425,-0.02585135 c 0.4009782,0.0029268 1.0887876,0 1.4575705,0.02926848 V -0.41804904 C 2.6804091,-0.43268329 2.3291873,-0.73707553 2.3291873,-1.1351269 c -0.00293,-0.084879 -0.00293,-0.1200008 0.067318,-0.2956117 l 0.6614677,-1.9141589 3.6146579,-0.00293 0.7843954,2.259527 c 0.076098,0.16975717 0.079025,0.19609881 0.079025,0.24292838 0,0.42146618 -0.734639,0.42439303 -1.0975682,0.42439303 V 4.9028505e-4 C 6.7662895,-0.0229245 7.9048336,-0.01999765 8.302885,-0.01999765 8.70679,-0.02585135 9.7399676,-0.02292455 10.067775,4.90285e-4 V -0.42097589 c -0.9336651,0.002927 -1.1912277,0.002927 -1.3873266,-0.57951601 z M 4.8609112,-8.531273 6.5292148,-3.76051 3.1955344,-3.75758 Z m 0,0"
         style="fill:#ffffff;fill-opacity:1;fill-rule:nonzero;stroke:none"
         aria-label="A"
         transform="matrix(2.6692533,-1.3346267,2.6692533,1.3346267,226.69166,128.54935)"
         clip-path="url(#clipPath28)"
         id="path49" />
      <path
         d="M 9.3682254,-9.7256862 H 0.76329093 L 0.49987457,-6.5237139 H 0.8159742 c 0.1990257,-2.2712344 0.327807,-2.7863598 2.5961146,-2.7892866 0.2517089,0.00585 0.6585409,0.00293 0.7814685,0.032195 0.2780506,0.043903 0.2985386,0.2165868 0.2956117,0.541467 v 7.6332208 c 0.00585,0.48585679 0.00293,0.68195564 -1.4078141,0.68780934 l -0.5180522,-0.002927 V 2.3081692e-4 C 3.0228179,-0.02025667 4.5038033,-0.02611037 5.0599045,-0.02025667 c 0.5619549,0 2.0575744,-0.0029268 2.5141628,0.0204879369 V -0.42123491 H 7.058942 c -1.4048873,0 -1.4019605,-0.19609885 -1.4078141,-0.68195569 v -7.6332208 c 0.00293,-0.3600023 0.029268,-0.4858568 0.2634163,-0.5443938 0.1082934,-0.032195 0.520979,-0.029269 0.7931759,-0.026342 2.2683076,-0.00293 2.3970889,0.5121985 2.5961146,2.7834329 l 0.3190265,0.00293 z m 0,0"
         style="fill:#ffffff;fill-opacity:1;fill-rule:nonzero;stroke:none"
         aria-label="T"
         transform="matrix(2.6692533,-1.3346267,2.6692533,1.3346267,227.20415,52.627775)"
         clip-path="url(#clipPath29)"
         id="path50" />
      <path
         d="m 0.6203882,-9.7993301 0.002927,0.4126857 0.2839043,0.00293 c 1.0302506,0 1.0682996,0.1434156 1.0712266,0.6731752 l -0.00293,7.6185865 c 0.00585,0.53268642 -0.040976,0.67317514 -1.07122645,0.67317514 l -0.2839043,-0.002927 V -2.3838707e-4 L 6.0087132,0.00268846 c 1.8556219,-0.0058537 3.1434354,-1.25854486 3.1434354,-2.62830996 0.00293,-1.1678125 -1.0507387,-2.3034297 -2.7541645,-2.4966017 1.3668382,-0.2604895 2.3502593,-1.1736663 2.3502593,-2.2507465 0,-1.2292763 -1.2439106,-2.4263574 -3.1258742,-2.4234305 z m 2.4468453,4.5658836 -0.00293,-3.5736819 c 0.00585,-0.4741495 0.038049,-0.5824429 0.6643946,-0.5765892 l 1.8117192,-0.00293 c 1.4370826,-0.00293 1.949281,1.23513 1.949281,2.007818 0,0.9482989 -0.7463463,2.1453799 -2.3385519,2.1453799 z m 0.6585409,4.81466574 c -0.6263456,-0.005854 -0.6585409,-0.096586 -0.6614677,-0.5678086 l 0.00585,-3.96295284 2.68392,0.00293 c 1.3785456,-0.00293 2.0926966,1.2029347 2.0897698,2.3122103 0,1.159032 -0.869274,2.20977055 -2.280015,2.21562424 z m 0,0"
         style="fill:#ffffff;fill-opacity:1;fill-rule:nonzero;stroke:none"
         aria-label="B"
         transform="matrix(2.6692533,-1.3346267,2.6692533,1.3346267,303.13373,90.328309)"
         clip-path="url(#clipPath30)"
         id="path51" />
      <path
         d="m 85.04042,42.5202 85.04044,42.52022 M 56.69362,56.6936 141.73404,99.21382 M 28.3468,70.867 113.38724,113.38724 M 0.00995,85.03543 85.05038,127.55566 M 85.04042,42.5202 0,85.0404 M 113.38724,56.69362 28.3468,99.21382 M 141.73404,70.867 56.69362,113.38722 M 170.07089,85.03543 85.03047,127.55565"
         style="fill:none;stroke:#000000;stroke-width:0.3985;stroke-linecap:butt;stroke-linejoin:miter;stroke-miterlimit:10;stroke-dasharray:none;stroke-opacity:1"
         transform="matrix(2.6692533,0,0,-2.6692533,0.66996144,341.97217)"
         clip-path="url(#clipPath31)"
         id="path52" />
    </g>
  </g>
</svg>
