<?xml version="1.0" encoding="UTF-8" standalone="no"?>
<!-- Created with Inkscape (http://www.inkscape.org/) -->

<svg
   version="1.1"
   id="svg1"
   width="456"
   height="456"
   viewBox="0 0 456 456"
   xmlns="http://www.w3.org/2000/svg"
   xmlns:svg="http://www.w3.org/2000/svg">
  <defs
     id="defs1">
    <linearGradient
       x1="0"
       y1="0"
       x2="0"
       y2="100.00128"
       gradientUnits="userSpaceOnUse"
       id="linearGradient5">
      <stop
         style="stop-opacity:1;stop-color:#f2f2f2"
         offset="0"
         id="stop1" />
      <stop
         style="stop-opacity:1;stop-color:#f2f2f2"
         offset="0.25"
         id="stop2" />
      <stop
         style="stop-opacity:1;stop-color:#b9b9b9"
         offset="0.5"
         id="stop3" />
      <stop
         style="stop-opacity:1;stop-color:#808080"
         offset="0.75"
         id="stop4" />
      <stop
         style="stop-opacity:1;stop-color:#808080"
         offset="1"
         id="stop5" />
    </linearGradient>
    <clipPath
       clipPathUnits="userSpaceOnUse"
       id="clipPath5">
      <path
         d="M 0,0 V 85.04042 L 85.04042,42.52022 V -42.5202 Z"
         transform="matrix(2.6692533,0,0,-2.6692533,0.66996144,341.97217)"
         id="path5" />
    </clipPath>
    <clipPath
       clipPathUnits="userSpaceOnUse"
       id="clipPath6">
      <path
         d="M 0,0 H 378.762 V 341.285 H 0 Z"
         transform="matrix(0.49951548,-0.24975775,0,-0.49951548,-23.046426,115.80222)"
         id="path6" />
    </clipPath>
    <clipPath
       clipPathUnits="userSpaceOnUse"
       id="clipPath7">
      <path
         d="M 0,0 H 378.762 V 341.285 H 0 Z"
         transform="matrix(0.49951548,-0.24975775,0,-0.49951548,-51.492424,115.80221)"
         id="path7" />
    </clipPath>
    <clipPath
       clipPathUnits="userSpaceOnUse"
       id="clipPath8">
      <path
         d="M 0,0 H 378.762 V 341.285 H 0 Z"
         transform="matrix(0.49951548,-0.24975775,0,-0.49951548,-51.684426,87.455216)"
         id="path8" />
    </clipPath>
    <clipPath
       clipPathUnits="userSpaceOnUse"
       id="clipPath9">
      <path
         d="M 0,0 H 378.762 V 341.285 H 0 Z"
         transform="matrix(0.49951548,-0.24975775,0,-0.49951548,-79.838426,87.456217)"
         id="path9" />
    </clipPath>
    <clipPath
       clipPathUnits="userSpaceOnUse"
       id="clipPath10">
      <path
         d="M 0,0 H 378.762 V 341.285 H 0 Z"
         transform="matrix(0.49951548,0,0,0.49951548,-14.237425,-42.718999)"
         id="path10" />
    </clipPath>
    <linearGradient
       x1="0"
       y1="0"
       x2="0"
       y2="100.00128"
       gradientUnits="userSpaceOnUse"
       id="linearGradient14">
      <stop
         style="stop-opacity:1;stop-color:#808080"
         offset="0"
         id="stop10" />
      <stop
         style="stop-opacity:1;stop-color:#808080"
         offset="0.25"
         id="stop11" />
      <stop
         style="stop-opacity:1;stop-color:#b9b9b9"
         offset="0.5"
         id="stop12" />
      <stop
         style="stop-opacity:1;stop-color:#f2f2f2"
         offset="0.75"
         id="stop13" />
      <stop
         style="stop-opacity:1;stop-color:#f2f2f2"
         offset="1"
         id="stop14" />
    </linearGradient>
    <clipPath
       clipPathUnits="userSpaceOnUse"
       id="clipPath14">
      <path
         d="M 85.04042,-42.52022 V 42.5202 l 85.04044,42.52022 V 0 Z"
         transform="matrix(2.6692533,0,0,-2.6692533,0.66996144,341.97217)"
         id="path14" />
    </clipPath>
    <clipPath
       clipPathUnits="userSpaceOnUse"
       id="clipPath15">
      <path
         d="M 0,0 H 378.762 V 341.285 H 0 Z"
         transform="matrix(0.49951548,0.24975775,0,-0.49951548,-137.89443,16.525785)"
         id="path15" />
    </clipPath>
    <clipPath
       clipPathUnits="userSpaceOnUse"
       id="clipPath16">
      <path
         d="M 0,0 H 378.762 V 341.285 H 0 Z"
         transform="matrix(0.49951548,0.24975775,0,-0.49951548,-165.07043,16.525783)"
         id="path16" />
    </clipPath>
    <clipPath
       clipPathUnits="userSpaceOnUse"
       id="clipPath17">
      <path
         d="M 0,0 H 378.762 V 341.285 H 0 Z"
         transform="matrix(0.49951548,0.24975775,0,-0.49951548,-139.26243,-11.821214)"
         id="path17" />
    </clipPath>
    <clipPath
       clipPathUnits="userSpaceOnUse"
       id="clipPath18">
      <path
         d="M 0,0 H 378.762 V 341.285 H 0 Z"
         transform="matrix(0.49951548,0.24975775,0,-0.49951548,-165.36443,-11.821216)"
         id="path18" />
    </clipPath>
    <clipPath
       clipPathUnits="userSpaceOnUse"
       id="clipPath19">
      <path
         d="M 0,0 H 378.762 V 341.285 H 0 Z"
         transform="matrix(0.49951548,0.24975775,0,-0.49951548,-108.18442,-40.167215)"
         id="path19" />
    </clipPath>
    <clipPath
       clipPathUnits="userSpaceOnUse"
       id="clipPath20">
      <path
         d="M 0,0 H 378.762 V 341.285 H 0 Z"
         transform="matrix(0.49951548,0.24975775,0,-0.49951548,-136.72343,-40.167716)"
         id="path20" />
    </clipPath>
    <clipPath
       clipPathUnits="userSpaceOnUse"
       id="clipPath21">
      <path
         d="M 0,0 H 378.762 V 341.285 H 0 Z"
         transform="matrix(0.49951548,0.24975775,0,-0.49951548,-165.36443,-40.167215)"
         id="path21" />
    </clipPath>
    <clipPath
       clipPathUnits="userSpaceOnUse"
       id="clipPath22">
      <path
         d="M 0,0 H 378.762 V 341.285 H 0 Z"
         transform="matrix(0.49951548,0,0,0.49951548,-14.237425,-42.718999)"
         id="path22" />
    </clipPath>
    <linearGradient
       x1="0"
       y1="0"
       x2="0"
       y2="100.00128"
       gradientUnits="userSpaceOnUse"
       id="linearGradient26">
      <stop
         style="stop-opacity:1;stop-color:#f2f2f2"
         offset="0"
         id="stop22" />
      <stop
         style="stop-opacity:1;stop-color:#f2f2f2"
         offset="0.25"
         id="stop23" />
      <stop
         style="stop-opacity:1;stop-color:#868686"
         offset="0.5"
         id="stop24" />
      <stop
         style="stop-opacity:1;stop-color:#191919"
         offset="0.75"
         id="stop25" />
      <stop
         style="stop-opacity:1;stop-color:#191919"
         offset="1"
         id="stop26" />
    </linearGradient>
    <clipPath
       clipPathUnits="userSpaceOnUse"
       id="clipPath26">
      <path
         d="M 85.04042,127.56062 170.08086,85.04042 85.04042,42.5202 0,85.0404 Z"
         transform="matrix(2.6692533,0,0,-2.6692533,0.66996144,341.97217)"
         id="path26" />
    </clipPath>
    <clipPath
       clipPathUnits="userSpaceOnUse"
       id="clipPath27">
      <path
         d="M 0,0 H 378.762 V 341.285 H 0 Z"
         transform="matrix(0.24975774,0.24975774,0.49951546,-0.49951546,-143.88121,101.56479)"
         id="path27" />
    </clipPath>
    <clipPath
       clipPathUnits="userSpaceOnUse"
       id="clipPath28">
      <path
         d="M 0,0 H 378.762 V 341.285 H 0 Z"
         transform="matrix(0.24975774,0.24975774,0.49951546,-0.49951546,-144.66171,73.218284)"
         id="path28" />
    </clipPath>
    <clipPath
       clipPathUnits="userSpaceOnUse"
       id="clipPath29">
      <path
         d="M 0,0 H 378.762 V 341.285 H 0 Z"
         transform="matrix(0.24975774,0.24975774,0.49951546,-0.49951546,-171.88571,101.56428)"
         id="path29" />
    </clipPath>
    <clipPath
       clipPathUnits="userSpaceOnUse"
       id="clipPath30">
      <path
         d="M 0,0 H 378.762 V 341.285 H 0 Z"
         transform="matrix(0.24975774,0.24975774,0.49951546,-0.49951546,-172.13171,73.218282)"
         id="path30" />
    </clipPath>
    <clipPath
       clipPathUnits="userSpaceOnUse"
       id="clipPath31">
      <path
         d="M 0,0 H 378.762 V 341.285 H 0 Z"
         transform="matrix(0.24975774,0.24975774,0.49951546,-0.49951546,-200.67071,101.56528)"
         id="path31" />
    </clipPath>
    <clipPath
       clipPathUnits="userSpaceOnUse"
       id="clipPath32">
      <path
         d="M 0,0 H 378.762 V 341.285 H 0 Z"
         transform="matrix(0.24975774,0.24975774,0.49951546,-0.49951546,-200.76971,73.218284)"
         id="path32" />
    </clipPath>
    <clipPath
       clipPathUnits="userSpaceOnUse"
       id="clipPath33">
      <path
         d="M 0,0 H 378.762 V 341.285 H 0 Z"
         transform="matrix(0.49951548,0,0,0.49951548,-14.237425,-42.718999)"
         id="path33" />
    </clipPath>
  </defs>
  <g
     id="g1">
    <g
       id="g56">
      <g
         clip-path="url(#clipPath5)"
         id="g34">
        <path
           d="M 0,0 H 100 V 100 H 0 Z"
           transform="matrix(0,-6.8106266,-4.5403999,0,341.18714,625.7549)"
           style="fill:url(#linearGradient5);stroke:none"
           id="path34" />
      </g>
      <path
         d="m 0.6029981,-9.8022694 v 0.4156125 l 0.28683115,0.00293 c 1.03025065,0 1.07122655,0.1434156 1.07122655,0.676102 v 7.6156597 c 0,0.53854013 -0.040976,0.67024831 -1.07122655,0.67024831 l -0.28683115,-0.002927 v 0.42146618 h 5.022472 c 2.394162,0.002926849 4.3200283,-2.15416049 4.3200283,-4.80588519 0,-2.7687987 -1.9375737,-4.9902766 -4.3200283,-4.9932035 z m 3.1551426,9.38054931 c -0.6321992,0 -0.6614677,-0.0907323 -0.6614677,-0.56488175 V -8.8071409 c 0,-0.4682958 0.029269,-0.5765892 0.6614677,-0.5765892 h 1.5102538 c 1.1883005,-0.00293 2.1365994,0.5707355 2.7219691,1.5190344 0.6439067,1.0185432 0.6439067,2.4702601 0.6439067,3.0380687 0,0.8078102 -0.011707,2.1600141 -0.8253713,3.2166064 -0.4800031,0.6087845 -1.3346429,1.18830051 -2.5405045,1.18830051 z m 0,0"
         style="fill:#000000;fill-opacity:1;fill-rule:nonzero;stroke:none"
         aria-label="D"
         transform="matrix(2.6692533,1.3346267,0,2.6692533,24.183414,177.65293)"
         clip-path="url(#clipPath6)"
         id="path35" />
      <path
         d="m 5.5494121,-9.9866608 c -0.058537,-0.1697572 -0.081952,-0.2575632 -0.2809774,-0.2575632 -0.2048794,-0.0029 -0.2341479,0.04098 -0.3043922,0.2751242 l -3.0029466,8.5785929 c -0.1990257,0.58536966 -0.597077,0.95415257 -1.51610746,0.96878681 V -2.5391058e-4 C 1.3171893,-0.02074185 1.3523115,-0.02659555 1.8206072,-0.02074185 c 0.4039051,-0.0029269 1.0887876,0 1.4634242,0.01756109 v -0.42146618 c -0.6029307,-0.008781 -0.9600063,-0.30439224 -0.9600063,-0.70244366 0,-0.087805 0,-0.1229276 0.076098,-0.3073191 l 0.6556141,-1.9083051 3.611731,0.00293 0.7961027,2.2419659 c 0.070244,0.18146462 0.070244,0.21073311 0.070244,0.25756268 0,0.42146618 -0.7317121,0.41853933 -1.0946413,0.41853933 V -2.5391058e-4 C 6.7669811,-0.0236687 7.908452,-0.02659555 8.3065034,-0.02659555 c 0.3980514,0.0058537 1.4341557,0.0029268 1.7619626,0.0263416394 V -0.42172009 C 9.1377284,-0.42464694 8.8801657,-0.42464694 8.68114,-1.0041629 Z m -0.6848825,1.4487899 1.6624499,4.7824704 -3.3307535,-0.00293 z m 0,0"
         style="fill:#000000;fill-opacity:1;fill-rule:nonzero;stroke:none"
         aria-label="A"
         transform="matrix(2.6692533,1.3346267,0,2.6692533,100.11299,215.61772)"
         clip-path="url(#clipPath7)"
         id="path36" />
      <path
         d="M 9.3657311,-9.7229855 H 0.76079665 L 0.50323398,-6.526867 H 0.81933362 C 1.0183593,-8.7981014 1.1471406,-9.3132267 3.4125213,-9.3102998 c 0.2575627,-0.00585 0.6614678,-0.00293 0.7785417,0.032195 0.2868312,0.032195 0.2985386,0.2195136 0.2985386,0.541467 v 7.6332207 c 0,0.49171058 0,0.68488258 -1.4048873,0.67902888 l -0.520979,0.002927 V 5.1075457e-6 C 3.0261774,-0.02633653 4.501309,-0.02048283 5.0632639,-0.02633653 c 0.5619549,0 2.0546476,0.0029269 2.511236,0.026341637546 V -0.42146107 H 7.0593745 c -1.4048872,0 -1.4048872,-0.193172 -1.4048872,-0.68488253 v -7.6332208 c 0,-0.3570755 0.023415,-0.4800031 0.2575626,-0.5385401 0.1112203,-0.032195 0.5268328,-0.035122 0.8019565,-0.038049 2.2653807,0.00293 2.394162,0.5180521 2.5931877,2.7892865 l 0.3219534,-0.00293 z m 0,0"
         style="fill:#000000;fill-opacity:1;fill-rule:nonzero;stroke:none"
         aria-label="T"
         transform="matrix(2.6692533,1.3346267,0,2.6692533,100.62549,291.53929)"
         clip-path="url(#clipPath8)"
         id="path37" />
      <path
         d="m 5.5499395,-9.9861335 c -0.058537,-0.1697575 -0.081952,-0.2575625 -0.2809775,-0.2575625 -0.2048794,-0.0029 -0.2341479,0.04098 -0.3043922,0.2751236 l -3.0029466,8.5785928 c -0.1990256,0.58536967 -0.597077,0.95415258 -1.51610745,0.96878682 V 2.7339543e-4 C 1.3177166,-0.02021454 1.3528388,-0.02606824 1.8211345,-0.02021454 c 0.4039051,-0.0029269 1.0887876,0 1.4634242,0.01756109 V -0.42411963 C 2.681628,-0.43290018 2.3245525,-0.72851187 2.3245525,-1.1265633 c 0,-0.087805 0,-0.1229276 0.076098,-0.307319 l 0.6556141,-1.9083052 3.611731,0.00293 0.7961027,2.2419659 c 0.070244,0.18146463 0.070244,0.21073311 0.070244,0.25756269 0,0.42146618 -0.7317121,0.41853933 -1.0946413,0.41853933 V 2.7339543e-4 C 6.7675084,-0.02314139 7.9089793,-0.02606824 8.3070307,-0.02606824 c 0.3980514,0.0058537 1.4341557,0.0029268 1.7619623,0.0263416354 V -0.42119278 c -0.9307373,-0.002927 -1.1883,-0.002927 -1.3873257,-0.58244282 z M 4.8650569,-8.5373436 6.5275068,-3.7548732 3.1967533,-3.7578 Z m 0,0"
         style="fill:#000000;fill-opacity:1;fill-rule:nonzero;stroke:none"
         aria-label="A"
         transform="matrix(2.6692533,1.3346267,0,2.6692533,175.77565,329.1117)"
         clip-path="url(#clipPath9)"
         id="path38" />
      <path
         d="M 0,0 85.04042,-42.5202 M 0,28.3468 85.04042,-14.17339 M 0,56.69362 85.04042,14.1734 M 0,85.03047 85.04042,42.51025 M 0,0 V 85.04042 M 28.3468,-14.17339 V 70.86702 M 56.69362,-28.3468 v 85.04042 m 28.33685,-99.20885 v 85.04042"
         style="fill:none;stroke:#000000;stroke-width:0.3985;stroke-linecap:butt;stroke-linejoin:miter;stroke-miterlimit:10;stroke-dasharray:none;stroke-opacity:1"
         transform="matrix(2.6692533,0,0,-2.6692533,0.66996144,341.97217)"
         clip-path="url(#clipPath10)"
         id="path39" />
      <g
         clip-path="url(#clipPath14)"
         id="g40">
        <path
           d="M 0,0 H 100 V 100 H 0 Z"
           transform="matrix(0,-6.8106266,-4.5403999,0,568.18157,625.7549)"
           style="fill:url(#linearGradient14);stroke:none"
           id="path40" />
      </g>
      <path
         d="M 2.9855228,-5.9821651 C 2.2538107,-6.1665565 1.609904,-6.8807075 1.609904,-7.799738 c 0,-1.0068358 0.7961028,-1.9141588 1.9200126,-1.9083051 2.3473325,-0.00293 2.6692858,2.3239176 2.7512375,2.9327021 0.035122,0.1814646 0.035122,0.2341479 0.1756109,0.2341479 0.1580499,-0.00293 0.1580499,-0.073171 0.1580499,-0.3307339 v -2.89758 c 0,-0.257563 0,-0.327807 -0.1404888,-0.327807 -0.04683,0 -0.099513,0.0029 -0.2048794,0.1843915 L 5.7952973,-9.0377949 C 5.1045611,-9.9275568 4.1621159,-10.100241 3.5299166,-10.094387 c -1.5922056,0 -2.75709126,1.2731789 -2.75709126,2.7366032 0,0.6907362 0.24585526,1.3170818 0.77854166,1.8936709 0.503418,0.5561012 1.0009822,0.6878094 2.0195255,0.9512258 0.5034179,0.1112202 1.293667,0.3131727 1.4926927,0.4009782 0.6731751,0.3248802 1.1180561,1.1034219 1.1180561,1.8995247 0,1.0829339 -0.7551269,2.0985503 -1.9492811,2.0985503 -0.6439066,0 -1.5336686,-0.15804982 -2.2361122,-0.772688 C 1.165023,-1.6357951 1.1064861,-2.6660458 1.088925,-3.1431221 1.0772176,-3.260196 0.96599734,-3.2572691 0.93087516,-3.2631228 c -0.15804982,0.00293 -0.15804982,0.079025 -0.15804982,0.3365875 v 2.9034337 c 0,0.25170896 0,0.32195333 0.14634242,0.32488018 0.0878054,-0.002927 0.0995128,-0.0263416 0.19902574,-0.2048794 0.058537,-0.11122024 0.3570755,-0.64097981 0.4741494,-0.85756659 0.5151253,0.57951599 1.4165947,1.05951914 2.6517247,1.05659229 1.6097667,0.002927 2.7746523,-1.35220398 2.7746523,-2.93270218 0,-0.8722008 -0.3336607,-1.524888 -0.7200047,-1.9990375 -0.5326864,-0.6409798 -1.1765931,-0.7990296 -1.738548,-0.9512257 z m 0,0"
         style="fill:#000000;fill-opacity:1;fill-rule:nonzero;stroke:none"
         aria-label="S"
         transform="matrix(2.6692533,-1.3346267,0,2.6692533,330.74182,227.85091)"
         clip-path="url(#clipPath15)"
         id="path41" />
      <path
         d="m 9.3482792,-9.7724338 c 0,-0.2575622 0,-0.3278072 -0.1404887,-0.3278072 -0.081952,0.0059 -0.099513,0.02634 -0.1873183,0.1697574 L 8.3180286,-8.8007201 C 7.6741219,-9.5968229 6.7024082,-10.094387 5.6663039,-10.097314 c -2.6224562,0 -4.89369063,2.2653807 -4.89369063,5.1863755 0,2.973678 2.29464923,5.20979023 4.89369063,5.20979023 2.3531861,0 3.6819753,-2.05172073 3.6819753,-3.63221893 0,-0.1580498 0,-0.2400016 -0.1521961,-0.2341479 -0.1463424,-0.00293 -0.1580498,0.067318 -0.1580498,0.1668304 -0.1287813,2.2829418 -1.7912312,3.28392395 -3.1844111,3.28392395 -1.0068359,0 -3.746366,-0.60293079 -3.746366,-4.79417775 0,-4.1385637 2.6985542,-4.7795436 3.7288049,-4.7795436 1.5102538,0.00585 2.8273356,1.2790328 3.1141668,3.4302664 0.029268,0.1785378 0.029268,0.2195137 0.1990256,0.2165868 0.1990257,0 0.1990257,-0.040976 0.1990257,-0.327807 z m 0,0"
         style="fill:#000000;fill-opacity:1;fill-rule:nonzero;stroke:none"
         aria-label="C"
         transform="matrix(2.6692533,-1.3346267,0,2.6692533,403.28145,191.5811)"
         clip-path="url(#clipPath16)"
         id="path42" />
      <path
         d="m 3.1146058,-8.7097288 c 0,-0.5326864 0.040976,-0.676102 1.1180561,-0.6702483 l 0.3160996,-0.00585 v -0.4156125 c -0.3453681,0.032195 -1.5804982,0.029269 -2.007818,0.032195 -0.4331736,0 -1.68001105,0.00293 -2.01952547,-0.026342 v 0.4156125 l 0.31024593,-0.00293 c 1.07708024,0 1.12390984,0.1404888 1.12390984,0.6731752 v 7.6156597 c 0,0.5385401 -0.04683,0.67317513 -1.12390984,0.67317513 l -0.31024593,0.002927 v 0.42146618 c 0.33951442,-0.02341479 1.57464447,-0.02634163 2.00196437,-0.02926848 0.4273198,0.0029268 1.680011,0.0029268 2.0253791,0.02341478 v -0.42146617 l -0.3160996,0.005854 C 3.1555816,-0.42382082 3.1146058,-0.555529 3.1146058,-1.0940691 Z m 0,0"
         style="fill:#000000;fill-opacity:1;fill-rule:nonzero;stroke:none"
         aria-label="I"
         transform="matrix(2.6692533,-1.3346267,0,2.6692533,334.39336,301.69046)"
         clip-path="url(#clipPath17)"
         id="path43" />
      <path
         d="m 9.1494018,-3.6726226 -0.3102459,0.00293 c -0.3453681,2.2390391 -0.6907363,3.24880183 -3.1141668,3.24880183 l -1.949281,0.002927 c -0.6321993,0 -0.6614678,-0.096586 -0.6614678,-0.57073545 V -4.8638499 l 1.3053744,0.00293 c 1.3756188,-0.00293 1.5336686,0.444881 1.5336686,1.680011 h 0.3160996 v -3.769784 H 5.9532833 c 0,1.2292764 -0.1580498,1.6712305 -1.5336686,1.6741573 l -1.3053744,-0.00293 v -3.5005108 c 0,-0.4741494 0.029269,-0.5707354 0.6614678,-0.5707354 l 1.9024514,-0.00293 c 2.1131846,0.00293 2.5580656,0.7170779 2.7746524,2.7863598 L 8.7630578,-6.570212 8.3942749,-9.7692573 H 0.58544323 v 0.4156124 l 0.28683115,-0.00293 c 1.03610432,0.00293 1.08293392,0.1492693 1.08293392,0.676102 v 7.5863912 c 0,0.5385401 -0.04683,0.67317513 -1.08293392,0.67024828 l -0.28683115,0.002927 V 5.7220309e-4 H 8.5815932 Z m 0,0"
         style="fill:#000000;fill-opacity:1;fill-rule:nonzero;stroke:none"
         aria-label="E"
         transform="matrix(2.6692533,-1.3346267,0,2.6692533,404.06621,266.85404)"
         clip-path="url(#clipPath18)"
         id="path44" />
      <path
         d="M 3.2426468,-9.5938414 C 3.1138654,-9.7811597 3.0963043,-9.8016477 2.7860584,-9.7987208 H 0.58506835 v 0.4156124 c 0.62049185,0 0.97756735,-0.00293 1.36976505,0.1053666 v 7.7737095 c 0,0.4097588 0,1.08293392 -1.36976505,1.08293392 V 3.6779699e-4 C 0.96555865,-0.02012014 1.7206856,-0.02304699 2.1245906,-0.02597384 c 0.3980514,0 1.159032,0.0058537 1.5336686,0.02341479 V -0.42402523 C 2.2943479,-0.42109838 2.2943479,-1.0942735 2.2943479,-1.5040323 v -7.5454153 c 0.1112202,0.1082934 0.1112202,0.1375618 0.2458552,0.3102459 l 5.5961343,8.52298271 C 8.2768261,-0.0113396 8.2943872,0.00329465 8.3939,3.6779699e-4 c 0.1287814,0 0.1580499,-0.055610117 0.1697572,-0.090732307 V -8.2972476 c 0,-0.4156125 0,-1.0887876 1.3639114,-1.0858608 v -0.4156124 c -0.3746366,0.029268 -1.1297635,0.032195 -1.5336686,0.029268 -0.4039051,0.00293 -1.1648856,-0.00293 -1.5336686,-0.029268 v 0.4156124 c 1.3580577,0 1.3580577,0.6731752 1.3580577,1.0887877 v 6.2751631 z m 0,0"
         style="fill:#000000;fill-opacity:1;fill-rule:nonzero;stroke:none"
         aria-label="N"
         transform="matrix(2.6692533,-1.3346267,0,2.6692533,251.4383,418.83065)"
         clip-path="url(#clipPath19)"
         id="path45" />
      <path
         d="m 9.3487519,-9.7728792 c 0,-0.2575628 0,-0.3278068 -0.1404887,-0.3278068 -0.081952,0.0059 -0.099513,0.02634 -0.1873183,0.169757 L 8.3185013,-8.8011655 C 7.6745946,-9.5972683 6.7028809,-10.094833 5.6667766,-10.097759 c -2.6224562,0 -4.89369064,2.2653803 -4.89369064,5.1863751 0,2.973678 2.29464914,5.20979024 4.89369064,5.20979024 2.3531861,0 3.6819753,-2.05172074 3.6819753,-3.63221894 0,-0.1580498 0,-0.2400016 -0.1521961,-0.2341479 -0.1463424,-0.00293 -0.1580498,0.067317 -0.1580498,0.1668304 -0.1287813,2.2829418 -1.7912313,3.28392396 -3.1844111,3.28392396 -1.0068359,0 -3.746366,-0.60293078 -3.746366,-4.79417776 0,-4.1385637 2.6985542,-4.7795435 3.7288049,-4.7795435 1.5102538,0.00585 2.8273356,1.2790327 3.1141667,3.4302663 0.029269,0.1785378 0.029269,0.2195137 0.1990257,0.2165868 0.1990257,0 0.1990257,-0.040976 0.1990257,-0.327807 z m 0,0"
         style="fill:#000000;fill-opacity:1;fill-rule:nonzero;stroke:none"
         aria-label="C"
         transform="matrix(2.6692533,-1.3346267,0,2.6692533,327.61613,380.74307)"
         clip-path="url(#clipPath20)"
         id="path46" />
      <path
         d="m 9.1494018,-3.6735587 -0.3102459,0.00293 c -0.3453681,2.2390391 -0.6907363,3.24880181 -3.1141668,3.24880181 l -1.949281,0.002927 c -0.6321993,0 -0.6614678,-0.096586 -0.6614678,-0.57073545 V -4.8647861 l 1.3053744,0.00293 c 1.3756188,-0.00293 1.5336686,0.444881 1.5336686,1.680011 H 6.2693829 V -6.951629 H 5.9532833 c 0,1.2292764 -0.1580498,1.6712305 -1.5336686,1.6741573 l -1.3053744,-0.00293 v -3.5005108 c 0,-0.4741494 0.029269,-0.5707354 0.6614678,-0.5707354 l 1.9024514,-0.00293 c 2.1131846,0.00293 2.5580656,0.7170779 2.7746524,2.7863597 l 0.3102459,-0.00293 -0.3687829,-3.1990454 H 0.58544323 v 0.4156125 l 0.28683115,-0.00293 c 1.03610432,0.00293 1.08293392,0.1492692 1.08293392,0.676102 v 7.5863912 c 0,0.53854008 -0.04683,0.67317511 -1.08293392,0.67024826 l -0.28683115,0.002927 V -3.7646513e-4 H 8.5815932 Z m 0,0"
         style="fill:#000000;fill-opacity:1;fill-rule:nonzero;stroke:none"
         aria-label="E"
         transform="matrix(2.6692533,-1.3346267,0,2.6692533,404.06621,342.51669)"
         clip-path="url(#clipPath21)"
         id="path47" />
      <path
         d="M 85.04042,-42.52022 170.08086,0 M 85.04042,-14.1734 170.08086,28.3468 M 85.04042,14.17339 170.08086,56.69362 M 85.04042,42.51024 170.08086,85.03047 M 85.04042,-42.52022 V 42.5202 m 28.34682,-70.867 v 85.04042 m 28.3468,-70.86702 V 70.867 m 28.33685,-70.87197 v 85.0404"
         style="fill:none;stroke:#000000;stroke-width:0.3985;stroke-linecap:butt;stroke-linejoin:miter;stroke-miterlimit:10;stroke-dasharray:none;stroke-opacity:1"
         transform="matrix(2.6692533,0,0,-2.6692533,0.66996144,341.97217)"
         clip-path="url(#clipPath22)"
         id="path48" />
      <g
         clip-path="url(#clipPath26)"
         id="g49">
        <path
           d="M 0,0 H 100 V 100 H 0 Z"
           transform="matrix(9.0808532,0,0,-4.5403999,-226.37828,341.99779)"
           style="fill:url(#linearGradient26);stroke:none"
           id="path49" />
      </g>
      <path
         d="m 6.0497703,-4.8727397 c 1.4283021,-0.3395144 2.531724,-1.2380569 2.5346508,-2.3473325 -0.00293,-1.3843993 -1.6273277,-2.5756266 -3.6936827,-2.5814803 l -4.29075988,0.00585 0.002927,0.4126856 0.289758,-0.00293 c 1.03025068,0 1.06829968,0.1434156 1.07122658,0.6731751 l -0.00293,7.6185866 c 0.00585,0.53268638 -0.040976,0.6731751 -1.07122653,0.6731751 l -0.28975799,0.002927 V 0.00338308 C 0.9336363,-0.02588541 2.1073026,-0.02295856 2.5258419,-0.02588541 c 0.4156125,0.0058537 1.6068398,0.0029269 1.9346468,0.026341639 V -0.4210032 l -0.289758,0.002927 c -1.0302506,0 -1.0682997,-0.14341557 -1.0741533,-0.6761019 l 0.00293,-3.6731949 1.6653768,0.00293 c 0.5619549,0 1.0917144,0.155123 1.4751316,0.5619549 0.4858568,0.5443938 0.4887837,0.8400055 0.4858568,1.832207 0.00585,1.1297636 0.00293,1.50147334 0.6409798,2.12781891 0.2078063,0.21951363 0.8107371,0.54146696 1.6097667,0.54439381 1.1209829,-0.002927 1.3141549,-1.24976429 1.3141549,-1.55415652 0,-0.081952 0,-0.210733 -0.163904,-0.210733 -0.1404882,0 -0.143415,0.090732 -0.1580493,0.2282941 C 9.9015029,-0.37710047 9.4829636,0.01217037 9.0234484,0.00924352 8.3590538,0.01217037 8.2156382,-0.65807792 8.1014911,-1.4161317 8.0927106,-1.5185714 8.007832,-2.1419901 7.9610024,-2.4932119 7.8614895,-3.2132166 7.8117331,-3.6727318 7.3756327,-4.1205396 7.214656,-4.2698089 6.8400194,-4.6561529 6.0497703,-4.8727397 Z m -1.3404965,-0.1814646 -1.6068399,-0.00293 -0.00585,-3.7522197 c 0,-0.327807 0,-0.5034179 0.2985385,-0.5561012 0.134635,-0.017561 0.5648817,-0.020488 0.8546397,-0.023415 1.1619589,0.00293 3.0000197,0.00293 3.0000197,2.1687947 -0.00293,1.2497643 -0.676102,2.1687947 -2.5405044,2.1658679 z m 0,0"
         style="fill:#ffffff;fill-opacity:1;fill-rule:nonzero;stroke:none"
         aria-label="R"
         transform="matrix(2.6692533,-1.3346267,2.6692533,1.3346267,75.619926,128.42122)"
         clip-path="url(#clipPath27)"
         id="path50" />
      <path
         d="M 8.1836797,-3.6763631 H 7.8675801 c -0.1521962,1.4400095 -0.3307339,3.25172865 -2.8448967,3.2546555 l -1.2497643,0.002927 c -0.6321993,0 -0.6585409,-0.096586 -0.6614678,-0.5678086 v -7.7034651 c 0.00585,-0.520979 0.032195,-0.6936631 1.2819596,-0.6965899 h 0.4331736 l -0.00293,-0.4126857 c -0.4185394,0.026342 -1.680011,0.029269 -2.183429,0.029269 -0.4273199,-0.00585 -1.70342579,-0.00585 -2.0546476,-0.029269 l 0.002927,0.4126857 0.289758,-0.00293 c 1.0331776,0.00293 1.0741534,0.1492693 1.0770803,0.6790289 l -0.00293,7.6185865 c 0.00585,0.53268638 -0.043903,0.67024826 -1.07708025,0.66732141 l -0.289758,0.002927 V -2.4421707e-4 H 7.8090369 Z m 0,0"
         style="fill:#ffffff;fill-opacity:1;fill-rule:nonzero;stroke:none"
         aria-label="L"
         transform="matrix(2.6692533,-1.3346267,2.6692533,1.3346267,153.36727,165.21154)"
         clip-path="url(#clipPath28)"
         id="path51" />
      <path
         d="m 9.3449877,-2.8420069 c 0,-0.5619549 0.049756,-0.6292724 0.9658603,-0.6263455 l 0.0029,-0.4185394 c -0.3717102,0.026342 -1.360985,0.020488 -1.7912317,0.023415 -0.4595152,-0.00293 -1.7063526,0.00293 -2.0956235,-0.023415 l -0.00293,0.4185394 0.4419541,-0.00293 c 1.2673254,0.00293 1.3170818,0.1697572 1.3170818,0.6848825 l -0.00585,0.9190305 c 0.00585,1.6331814 -1.8790367,1.75025534 -2.2536733,1.75025534 -1.1356172,0 -3.8166104,-0.69073624 -3.8195372,-4.79125094 0.00293,-4.1414905 2.7161153,-4.7766167 3.7141707,-4.7736898 1.2497642,-0.00293 2.7483107,0.8985425 3.1141667,3.4419738 0.032195,0.1609766 0.035122,0.1990257 0.2019526,0.2019525 0.2078062,-0.00293 0.2048793,-0.040976 0.2078062,-0.3307339 l 0.00293,-3.4039247 c -0.00585,-0.2517089 0,-0.3278069 -0.1492692,-0.3248799 -0.084879,-0.0029 -0.1024397,0.02634 -0.1843915,0.1668301 l -0.7112242,1.138544 C 7.8874172,-9.310342 7.0181432,-10.097664 5.6571587,-10.100591 c -2.5990414,0 -4.88783694,2.2536733 -4.88783694,5.1922291 0,2.973678 2.28294184,5.20979027 4.89369064,5.20979027 1.0185432,0 2.1834289,-0.32195333 2.7161154,-1.25269114 0.2517089,0.46244206 0.7287852,0.93951836 0.8458592,0.93951836 0.1170739,0 0.114147,-0.08487861 0.1170739,-0.31609964 z m 0,0"
         style="fill:#ffffff;fill-opacity:1;fill-rule:nonzero;stroke:none"
         aria-label="G"
         transform="matrix(2.6692533,-1.3346267,2.6692533,1.3346267,150.37237,91.046338)"
         clip-path="url(#clipPath29)"
         id="path52" />
      <path
         d="m 5.5487206,-9.9859167 c -0.05561,-0.1726843 -0.081952,-0.2575623 -0.2809775,-0.2575623 -0.2078062,0.0029 -0.2370747,0.0439 -0.3073191,0.2780503 L 1.9633312,-1.3956164 C 1.7643055,-0.81024674 1.3604004,-0.42975644 0.44429686,-0.42097589 V 4.9028505e-4 C 1.3194245,-0.02585135 1.348693,-0.01999765 1.8228425,-0.02585135 c 0.4009782,0.0029268 1.0887876,0 1.4575705,0.02926848 V -0.41804904 C 2.6804091,-0.43268329 2.3291873,-0.73707553 2.3291873,-1.1351269 c -0.00293,-0.084879 -0.00293,-0.1200008 0.067318,-0.2956117 l 0.6614677,-1.9141589 3.6146579,-0.00293 0.7843954,2.259527 c 0.076098,0.16975717 0.079025,0.19609881 0.079025,0.24292838 0,0.42146618 -0.734639,0.42439303 -1.0975682,0.42439303 V 4.9028505e-4 C 6.7662895,-0.0229245 7.9048336,-0.01999765 8.302885,-0.01999765 8.70679,-0.02585135 9.7399676,-0.02292455 10.067775,4.90285e-4 V -0.42097589 c -0.9336651,0.002927 -1.1912277,0.002927 -1.3873266,-0.57951601 z M 4.8609112,-8.531273 6.5292148,-3.76051 3.1955344,-3.75758 Z m 0,0"
         style="fill:#ffffff;fill-opacity:1;fill-rule:nonzero;stroke:none"
         aria-label="A"
         transform="matrix(2.6692533,-1.3346267,2.6692533,1.3346267,226.69166,128.54935)"
         clip-path="url(#clipPath30)"
         id="path53" />
      <path
         d="M 9.3682254,-9.7256862 H 0.76329093 L 0.49987457,-6.5237139 H 0.8159742 c 0.1990257,-2.2712344 0.327807,-2.7863598 2.5961146,-2.7892866 0.2517089,0.00585 0.6585409,0.00293 0.7814685,0.032195 0.2780506,0.043903 0.2985386,0.2165868 0.2956117,0.541467 v 7.6332208 c 0.00585,0.48585679 0.00293,0.68195564 -1.4078141,0.68780934 l -0.5180522,-0.002927 V 2.3081692e-4 C 3.0228179,-0.02025667 4.5038033,-0.02611037 5.0599045,-0.02025667 c 0.5619549,0 2.0575744,-0.0029268 2.5141628,0.0204879369 V -0.42123491 H 7.058942 c -1.4048873,0 -1.4019605,-0.19609885 -1.4078141,-0.68195569 v -7.6332208 c 0.00293,-0.3600023 0.029268,-0.4858568 0.2634163,-0.5443938 0.1082934,-0.032195 0.520979,-0.029269 0.7931759,-0.026342 2.2683076,-0.00293 2.3970889,0.5121985 2.5961146,2.7834329 l 0.3190265,0.00293 z m 0,0"
         style="fill:#ffffff;fill-opacity:1;fill-rule:nonzero;stroke:none"
         aria-label="T"
         transform="matrix(2.6692533,-1.3346267,2.6692533,1.3346267,227.20415,52.627775)"
         clip-path="url(#clipPath31)"
         id="path54" />
      <path
         d="m 0.6203882,-9.7993301 0.002927,0.4126857 0.2839043,0.00293 c 1.0302506,0 1.0682996,0.1434156 1.0712266,0.6731752 l -0.00293,7.6185865 c 0.00585,0.53268642 -0.040976,0.67317514 -1.07122645,0.67317514 l -0.2839043,-0.002927 V -2.3838707e-4 L 6.0087132,0.00268846 c 1.8556219,-0.0058537 3.1434354,-1.25854486 3.1434354,-2.62830996 0.00293,-1.1678125 -1.0507387,-2.3034297 -2.7541645,-2.4966017 1.3668382,-0.2604895 2.3502593,-1.1736663 2.3502593,-2.2507465 0,-1.2292763 -1.2439106,-2.4263574 -3.1258742,-2.4234305 z m 2.4468453,4.5658836 -0.00293,-3.5736819 c 0.00585,-0.4741495 0.038049,-0.5824429 0.6643946,-0.5765892 l 1.8117192,-0.00293 c 1.4370826,-0.00293 1.949281,1.23513 1.949281,2.007818 0,0.9482989 -0.7463463,2.1453799 -2.3385519,2.1453799 z m 0.6585409,4.81466574 c -0.6263456,-0.005854 -0.6585409,-0.096586 -0.6614677,-0.5678086 l 0.00585,-3.96295284 2.68392,0.00293 c 1.3785456,-0.00293 2.0926966,1.2029347 2.0897698,2.3122103 0,1.159032 -0.869274,2.20977055 -2.280015,2.21562424 z m 0,0"
         style="fill:#ffffff;fill-opacity:1;fill-rule:nonzero;stroke:none"
         aria-label="B"
         transform="matrix(2.6692533,-1.3346267,2.6692533,1.3346267,303.13373,90.328309)"
         clip-path="url(#clipPath32)"
         id="path55" />
      <path
         d="m 85.04042,42.5202 85.04044,42.52022 M 56.69362,56.6936 141.73404,99.21382 M 28.3468,70.867 113.38724,113.38724 M 0.00995,85.03543 85.05038,127.55566 M 85.04042,42.5202 0,85.0404 M 113.38724,56.69362 28.3468,99.21382 M 141.73404,70.867 56.69362,113.38722 M 170.07089,85.03543 85.03047,127.55565"
         style="fill:none;stroke:#000000;stroke-width:0.3985;stroke-linecap:butt;stroke-linejoin:miter;stroke-miterlimit:10;stroke-dasharray:none;stroke-opacity:1"
         transform="matrix(2.6692533,0,0,-2.6692533,0.66996144,341.97217)"
         clip-path="url(#clipPath33)"
         id="path56" />
    </g>
  </g>
</svg>
